<svg xmlns="http://www.w3.org/2000/svg" width="353.616" height="402.488" viewBox="0 0 353.616 402.488"><defs><style>.a{fill:#004fd0;}</style></defs><g transform="translate(-531.309 117.616)"><circle class="a" cx="40.772" cy="40.772" r="40.772" transform="translate(803.382 203.329)"/><g transform="translate(531.309 -117.616)"><path class="a" d="M556.976,65.172c.9.732,1.82,1.442,2.743,2.14L712.983-85.952q-1.047-1.385-2.14-2.743Z" transform="translate(-516.21 129.461)"/><path class="a" d="M583.538,73.971c1.271.376,2.548.722,3.83,1.052L720.693-58.3c-.33-1.281-.675-2.558-1.052-3.83Z" transform="translate(-505.332 140.339)"/><path class="a" d="M564.88,69.833q1.518.941,3.062,1.821L717.325-77.729q-.884-1.541-1.821-3.062Z" transform="translate(-512.973 132.698)"/><path class="a" d="M573.7,72.834q1.7.765,3.41,1.473L719.978-68.564q-.706-1.715-1.473-3.41Z" transform="translate(-509.362 136.309)"/><path class="a" d="M594.626,72.841c1.448.207,2.9.379,4.353.529L719.041-46.692c-.149-1.455-.323-2.905-.529-4.353Z" transform="translate(-500.79 144.881)"/><path class="a" d="M551.123,60.207c.409.409.823.8,1.236,1.205L707.084-93.312c-.4-.413-.8-.827-1.205-1.236s-.823-.8-1.236-1.205L549.918,58.971C550.318,59.384,550.716,59.8,551.123,60.207Z" transform="translate(-519.101 126.57)"/><path class="a" d="M607.367,68.7q2.558-.055,5.114-.231L714.141-33.19q.175-2.554.231-5.114Z" transform="translate(-495.572 150.099)"/><path class="a" d="M705.427-22.92,622.751,59.756q3.307-.742,6.573-1.691l74.412-74.412Q704.685-19.612,705.427-22.92Z" transform="translate(-489.272 156.399)"/><path class="a" d="M528.286-15.723q-.173,2.554-.231,5.112L635.06-117.616q-2.558.057-5.112.231Z" transform="translate(-528.055 117.616)"/><path class="a" d="M528.446,2.837c.148,1.453.321,2.905.529,4.353L652.861-116.7c-1.448-.207-2.9-.381-4.353-.529Z" transform="translate(-527.895 117.776)"/><path class="a" d="M645.1,38.141a109.654,109.654,0,0,0,21.8-16.916,109.658,109.658,0,0,0,16.916-21.8Z" transform="translate(-480.118 165.553)"/><path class="a" d="M531.623-39.637q-.949,3.267-1.691,6.574l82.676-82.676q-3.307.742-6.574,1.69Z" transform="translate(-527.286 118.385)"/><path class="a" d="M577.485-106.9a109.606,109.606,0,0,0-21.8,16.915,109.6,109.6,0,0,0-16.915,21.8Z" transform="translate(-523.665 122.006)"/><path class="a" d="M538.3,42.019q.886,1.541,1.821,3.062L690.751-105.545q-1.518-.939-3.062-1.821Z" transform="translate(-523.857 121.814)"/><path class="a" d="M543.683,51.276q1.044,1.383,2.138,2.743L699.69-99.85q-1.357-1.1-2.743-2.138Z" transform="translate(-521.654 124.017)"/><path class="a" d="M530.494,18.148c.33,1.281.677,2.56,1.053,3.83l136.1-136.1c-1.27-.376-2.548-.723-3.83-1.052Z" transform="translate(-527.056 118.615)"/><path class="a" d="M533.862,31.062q.7,1.715,1.473,3.408L680.142-110.336q-1.694-.765-3.408-1.473Z" transform="translate(-525.677 119.994)"/></g><rect class="a" width="20.976" height="3.352" transform="translate(728.082 186.563)"/><rect class="a" width="26.655" height="21.804" transform="translate(817.499 136.506)"/><g transform="translate(769.342 59.571)"><circle class="a" cx="1.99" cy="1.99" r="1.99" transform="translate(0 0)"/><circle class="a" cx="1.99" cy="1.99" r="1.99" transform="translate(25.96 0)"/><circle class="a" cx="1.99" cy="1.99" r="1.99" transform="translate(0 25.734)"/><circle class="a" cx="1.99" cy="1.99" r="1.99" transform="translate(25.96 25.734)"/><circle class="a" cx="1.99" cy="1.99" r="1.99" transform="translate(0 51.467)"/><circle class="a" cx="1.99" cy="1.99" r="1.99" transform="translate(25.96 51.467)"/><circle class="a" cx="1.99" cy="1.99" r="1.99" transform="translate(0 77.201)"/><circle class="a" cx="1.99" cy="1.99" r="1.99" transform="translate(25.96 77.201)"/><path class="a" d="M700.907,83.1a1.99,1.99,0,1,1-1.99-1.99A1.991,1.991,0,0,1,700.907,83.1Z" transform="translate(-696.926 21.82)"/><path class="a" d="M719.324,83.1a1.99,1.99,0,1,1-1.99-1.99A1.992,1.992,0,0,1,719.324,83.1Z" transform="translate(-689.383 21.82)"/><circle class="a" cx="1.99" cy="1.99" r="1.99" transform="translate(0 128.668)"/><circle class="a" cx="1.99" cy="1.99" r="1.99" transform="translate(25.96 128.668)"/><path class="a" d="M700.907,119.617a1.99,1.99,0,1,1-1.99-1.989A1.991,1.991,0,0,1,700.907,119.617Z" transform="translate(-696.926 36.774)"/><path class="a" d="M719.324,119.617a1.99,1.99,0,1,1-1.99-1.989A1.992,1.992,0,0,1,719.324,119.617Z" transform="translate(-689.383 36.774)"/></g></g></svg>