<svg xmlns="http://www.w3.org/2000/svg" xmlns:xlink="http://www.w3.org/1999/xlink" width="771.411" height="377.641" viewBox="0 0 771.411 377.641"><defs><style>.a{fill:url(#a);}.b{fill:url(#b);}.c{fill:url(#c);}.d{fill:#cb9eae;}.e{fill:url(#d);}.f{fill:url(#e);}.g{fill:url(#f);}.h{fill:url(#g);}.i{fill:url(#h);}.j{fill:#0060ff;}.k{fill:url(#i);}.l{fill:url(#j);}.m{fill:url(#k);}.n{fill:url(#l);}.o{fill:url(#m);}.p{fill:url(#n);}.q{fill:url(#o);}.r{fill:#001462;}.s{fill:url(#p);}.t{fill:url(#q);}.u{fill:url(#r);}.v{fill:url(#s);}.w{fill:url(#t);}.x{fill:url(#u);}.y{fill:url(#v);}.z{fill:#385fd4;}.aa{fill:url(#w);}.ab{fill:url(#x);}.ac{fill:url(#y);}.ad{fill:url(#z);}.ae{fill:url(#aa);}.af{fill:url(#ab);}.ag{fill:url(#ac);}.ah{fill:url(#ad);}.ai{fill:url(#ae);}.aj{fill:url(#af);}.ak{fill:url(#ag);}.al{fill:url(#ah);}.am{fill:url(#ai);}.an{fill:url(#aj);}.ao{fill:url(#ak);}.ap{fill:url(#al);}.aq{fill:url(#am);}.ar{fill:url(#an);}.as{fill:none;stroke:#001462;stroke-miterlimit:10;}.at{fill:url(#ao);}.au{fill:url(#ap);}.av{fill:url(#aq);}.aw{fill:url(#ar);}</style><linearGradient id="a" x1="-0.708" y1="-0.039" x2="-0.708" y2="0.958" gradientUnits="objectBoundingBox"><stop offset="0.237" stop-color="#8cc6ff"/><stop offset="1" stop-color="#0060ff" stop-opacity="0"/></linearGradient><linearGradient id="b" x1="0.725" y1="-0.581" x2="0.361" y2="1.043" gradientUnits="objectBoundingBox"><stop offset="0.08" stop-color="#385fd4"/><stop offset="0.212" stop-color="#3257c8"/><stop offset="0.446" stop-color="#2344ab"/><stop offset="0.751" stop-color="#0c247b"/><stop offset="0.898" stop-color="#001462"/></linearGradient><linearGradient id="c" x1="0.82" y1="0.205" x2="0.293" y2="0.736" gradientUnits="objectBoundingBox"><stop offset="0" stop-color="#f6b3b5"/><stop offset="1" stop-color="#fad1d3"/></linearGradient><linearGradient id="d" x1="0.366" y1="-0.117" x2="0.567" y2="0.831" xlink:href="#c"/><linearGradient id="e" x1="1.32" y1="-1.661" x2="-0.244" y2="2.59" gradientUnits="objectBoundingBox"><stop offset="0" stop-color="#385fd4"/><stop offset="0.16" stop-color="#3257c8"/><stop offset="0.443" stop-color="#2344ab"/><stop offset="0.813" stop-color="#0c247b"/><stop offset="0.991" stop-color="#001462"/></linearGradient><linearGradient id="f" x1="0.024" y1="-1.963" x2="0.817" y2="2.263" xlink:href="#e"/><linearGradient id="g" x1="0.78" y1="-0.114" x2="0.167" y2="1.33" xlink:href="#c"/><linearGradient id="h" x1="1.058" y1="-1.914" x2="-0.051" y2="2.919" xlink:href="#e"/><linearGradient id="i" x1="1.837" y1="0.278" x2="-1.16" y2="0.756" xlink:href="#e"/><linearGradient id="j" x1="-0.374" y1="0.5" x2="1.105" y2="0.5" xlink:href="#c"/><linearGradient id="k" x1="0.5" y1="1.34" x2="0.5" y2="-0.151" gradientUnits="objectBoundingBox"><stop offset="0" stop-color="#385fd4"/><stop offset="0.279" stop-color="#2c5fdc"/><stop offset="0.77" stop-color="#0f5ff3"/><stop offset="0.991" stop-color="#0060ff"/></linearGradient><linearGradient id="l" x1="0.493" y1="1.236" x2="0.514" y2="-0.278" gradientUnits="objectBoundingBox"><stop offset="0" stop-color="#001462"/><stop offset="0.069" stop-color="#071e71"/><stop offset="0.252" stop-color="#183594"/><stop offset="0.437" stop-color="#2647b0"/><stop offset="0.623" stop-color="#3054c4"/><stop offset="0.81" stop-color="#365cd0"/><stop offset="1" stop-color="#385fd4"/></linearGradient><linearGradient id="m" x1="1.773" y1="0.5" x2="-0.088" y2="0.5" gradientUnits="objectBoundingBox"><stop offset="0" stop-color="#385fd4"/><stop offset="0.174" stop-color="#416ad8"/><stop offset="0.48" stop-color="#5987e5"/><stop offset="0.88" stop-color="#80b7f8"/><stop offset="0.991" stop-color="#8cc6ff"/></linearGradient><linearGradient id="n" x1="0.5" y1="-0.19" x2="0.5" y2="1.216" gradientUnits="objectBoundingBox"><stop offset="0" stop-color="#385fd4"/><stop offset="0.17" stop-color="#4f7ce0"/><stop offset="0.397" stop-color="#699ced"/><stop offset="0.616" stop-color="#7cb3f7"/><stop offset="0.822" stop-color="#88c1fd"/><stop offset="1" stop-color="#8cc6ff"/></linearGradient><linearGradient id="o" x1="0.496" y1="0.999" x2="0.504" y2="0.003" xlink:href="#k"/><linearGradient id="p" x1="1.087" y1="0.417" x2="-0.153" y2="0.767" gradientUnits="objectBoundingBox"><stop offset="0" stop-color="#f6b3b5"/><stop offset="0.991" stop-color="#fad1d3"/></linearGradient><linearGradient id="q" x1="0.561" y1="0.433" x2="0.105" y2="0.79" xlink:href="#p"/><linearGradient id="r" x1="0.5" y1="-2.309" x2="0.5" y2="2.879" gradientUnits="objectBoundingBox"><stop offset="0" stop-color="#8cc6ff"/><stop offset="1" stop-color="#385fd4"/></linearGradient><linearGradient id="s" x1="0.5" y1="-1.142" x2="0.5" y2="1.465" gradientUnits="objectBoundingBox"><stop offset="0" stop-color="#8cc6ff"/><stop offset="0.174" stop-color="#82bafa"/><stop offset="0.48" stop-color="#6a9ded"/><stop offset="0.88" stop-color="#436dda"/><stop offset="0.991" stop-color="#385fd4"/></linearGradient><linearGradient id="t" x1="1.154" y1="0.34" x2="-0.141" y2="0.687" xlink:href="#p"/><linearGradient id="u" x1="0.567" y1="-0.104" x2="0.42" y2="0.968" xlink:href="#p"/><linearGradient id="v" x1="-3.555" y1="6.748" x2="0.835" y2="-0.016" gradientUnits="objectBoundingBox"><stop offset="0" stop-color="#8cc6ff"/><stop offset="1" stop-color="#f6b3b5"/></linearGradient><linearGradient id="w" x1="0.5" y1="2.747" x2="0.5" y2="-0.819" xlink:href="#r"/><linearGradient id="x" x1="0.5" y1="2.586" x2="0.5" y2="-0.703" xlink:href="#r"/><linearGradient id="y" x1="0.5" y1="-2.667" x2="0.5" y2="3.58" xlink:href="#r"/><linearGradient id="z" x1="0.5" y1="-8.332" x2="0.5" y2="6.442" xlink:href="#r"/><linearGradient id="aa" x1="0.5" y1="1.073" x2="0.5" y2="-0.165" xlink:href="#p"/><linearGradient id="ab" x1="0.493" y1="1.237" x2="0.508" y2="-0.28" xlink:href="#k"/><linearGradient id="ac" x1="0.6" y1="1.4" x2="0.415" y2="-0.007" xlink:href="#p"/><linearGradient id="ad" x1="2.266" y1="0.145" x2="0.035" y2="0.647" gradientUnits="objectBoundingBox"><stop offset="0" stop-color="#8cc6ff"/><stop offset="0.006" stop-color="#97c4f7"/><stop offset="0.016" stop-color="#b4bee2"/><stop offset="0.029" stop-color="#e4b6c1"/><stop offset="0.033" stop-color="#f6b3b5"/><stop offset="0.991" stop-color="#0060ff"/></linearGradient><linearGradient id="ae" x1="2.889" y1="0.358" x2="-0.099" y2="0.57" xlink:href="#ad"/><linearGradient id="af" x1="-2.302" y1="0.233" x2="4.871" y2="0.924" gradientUnits="objectBoundingBox"><stop offset="0.105" stop-color="#001462"/><stop offset="0.297" stop-color="#132e89"/><stop offset="0.49" stop-color="#2343aa"/><stop offset="0.675" stop-color="#2e52c1"/><stop offset="0.849" stop-color="#355bcf"/><stop offset="1" stop-color="#385fd4"/></linearGradient><linearGradient id="ag" x1="-2.16" y1="0.268" x2="5.982" y2="0.959" xlink:href="#af"/><linearGradient id="ah" x1="-0.999" y1="-0.736" x2="2.936" y2="2.477" xlink:href="#af"/><linearGradient id="ai" x1="1.493" y1="-0.435" x2="0.155" y2="0.849" gradientUnits="objectBoundingBox"><stop offset="0" stop-color="#f6b3b5"/><stop offset="0.088" stop-color="#eaafb8"/><stop offset="0.243" stop-color="#cda5c1"/><stop offset="0.448" stop-color="#9c94cf"/><stop offset="0.694" stop-color="#597ee3"/><stop offset="0.973" stop-color="#0561fd"/><stop offset="0.991" stop-color="#0060ff"/></linearGradient><linearGradient id="aj" x1="0.414" y1="0.064" x2="0.577" y2="1.038" xlink:href="#c"/><linearGradient id="ak" x1="1.006" y1="-0.155" x2="-0.018" y2="0.867" xlink:href="#c"/><linearGradient id="al" x1="2.22" y1="-2.095" x2="-0.329" y2="1.451" xlink:href="#ai"/><linearGradient id="am" x1="-0.163" y1="1.197" x2="1.109" y2="-0.229" gradientUnits="objectBoundingBox"><stop offset="0" stop-color="#001462"/><stop offset="0.118" stop-color="#0e277f"/><stop offset="0.267" stop-color="#1d3b9e"/><stop offset="0.424" stop-color="#294bb5"/><stop offset="0.591" stop-color="#3156c6"/><stop offset="0.773" stop-color="#365cd0"/><stop offset="1" stop-color="#385fd4"/></linearGradient><linearGradient id="an" x1="0.5" y1="0.963" x2="0.5" y2="0.053" xlink:href="#c"/><linearGradient id="ao" x1="0.49" y1="0.576" x2="0.645" y2="-2.904" xlink:href="#am"/><linearGradient id="ap" x1="-13.998" y1="0.933" x2="-13.92" y2="-0.689" xlink:href="#am"/><linearGradient id="aq" x1="1.778" y1="0.5" x2="-0.958" y2="0.5" gradientUnits="objectBoundingBox"><stop offset="0" stop-color="#0060ff"/><stop offset="0.089" stop-color="#0b63fb"/><stop offset="0.245" stop-color="#286df2"/><stop offset="0.451" stop-color="#587de4"/><stop offset="0.699" stop-color="#9b94d0"/><stop offset="0.979" stop-color="#efb0b6"/><stop offset="1" stop-color="#f6b3b5"/></linearGradient><linearGradient id="ar" x1="2.139" y1="0.5" x2="-0.597" y2="0.5" xlink:href="#aq"/></defs><g transform="translate(-240.468 -267.71)"><g transform="translate(178.787 171.972)"><path class="a" d="M501.662,352.236l.754.345,1.367.663c.9.439,1.7.882,2.536,1.328q2.428,1.346,4.7,2.779a103.131,103.131,0,0,1,8.663,6.121,117.571,117.571,0,0,1,15.184,14.222,130.868,130.868,0,0,1,12.483,16.355,145.856,145.856,0,0,1,9.728,17.9,158.107,158.107,0,0,1,7.125,18.843c.9,3.207,1.906,6.4,2.612,9.637l1.141,4.846.932,4.865a203.436,203.436,0,0,1,2.97,24.024V443.7a149.027,149.027,0,0,0-5.954-22.12c-4.341-12.987-10.754-28.028-17.874-44.295-5.836-13.3-10.821-25.006-15.441-34.5-4.6-9.48-9.187-16.486-12.933-20.225,3.7,3.7,10.671,8.507,18.189,16.557a117.219,117.219,0,0,1,21.905,32.974,156.82,156.82,0,0,1,12.107,45.283V351.69a59.1,59.1,0,0,0-5.951-13.092c-4.331-7.449-10.315-15.7-16.325-25.177a164.761,164.761,0,0,1-11.217-21.5c-2.764-6.3-5.013-11.258-6.873-14.02,1.873,2.779,6.569,5.66,11.951,10.11a77.349,77.349,0,0,1,16.977,18.561,81.58,81.58,0,0,1,11.438,29.408V310.827c-1.769-11.6-5.5-29.078-5.5-49.3,0-21.657,6.41-37.85,6.41-45.5,0,7.649,6.41,23.841,6.41,45.5,0,20.225-3.731,37.711-5.5,49.307v27.4a175.3,175.3,0,0,1,13.152-49.653,138.391,138.391,0,0,1,23.144-36.059c7.888-8.92,15.113-14.548,19.4-18.283-4.354,3.8-9.133,11.56-14.076,21.859-4.987,10.317-10.334,23.139-16.718,37.619-7.662,17.772-14.382,34.191-18.909,48.36a157.738,157.738,0,0,0-5.988,24.28v42.293q.838-7.868,2.2-15.595a253.212,253.212,0,0,1,8.468-33.891,291.78,291.78,0,0,1,12.59-32.394c2.408-5.289,5.072-10.5,7.888-15.7a151,151,0,0,1,9.9-15.662c-4.6,6.215-5.232,12.694-4.672,18.919a51.353,51.353,0,0,0,1.964,9.054c.928,2.916,2.008,5.689,3.047,8.266,1.532,3.722,1.293,6.534.037,8.876-1.189,2.368-3.322,4.3-5.534,6.151-4.287,3.716-8.835,7.218-5.662,12.366,3.077,5.1,6.838,9.889,6.538,15.441-.111,2.792-1.141,5.8-3.794,9.294-2.479,3.535-6.662,7.52-12.588,12.7a71.077,71.077,0,0,0-9.767,10.376,88.858,88.858,0,0,0-6.766,10.38c-1.73,3.205-2.9,6.03-3.746,8.022-.035.087-.065.163-.1.246v48.362c.174-1.082,5.5-31.572,23.617-48.436,17.02-15.845,32.906-20.886,37.081-23.2-4.209,2.327-28.174,31.92-36,42.115-12.079,15.73-24.693,35.418-24.693,57.21l0,.028v65.987h-1.823V484.216a29.651,29.651,0,0,0-1.493-5.58,37.235,37.235,0,0,0-5-8.824,55.832,55.832,0,0,0-6.754-7.171c-2.455-2.125-4.945-4.009-7.288-5.717-3.446-2.442-4.883-5.1-5.315-7.953-.537-2.82.124-5.9.574-8.9.256-1.508.537-3.014.721-4.472a18.1,18.1,0,0,0,.007-4.116,6.505,6.505,0,0,0-4.476-5.756c-5.819-2.179-11.838-3.4-15.569-7.744a13.732,13.732,0,0,1-2.473-3.924,25.432,25.432,0,0,1-1.732-5.578c-.9-4.437-1.358-10.252-2.084-18.576a58.8,58.8,0,0,0-10-27.085c-4.685-6.9-9.52-10.725-10.332-11.021Z" transform="translate(198.713 -120.294)"/></g><g transform="translate(287.381 276.727)"><g transform="translate(159.486 32.509)"><path class="b" d="M319.682,472.259c3.564,15.056,8.8,31.959,14.243,47.9h90.21c2.032-6.556,4.055-13.6,5.973-21.073,11.084-43.165-.582-80.5-11.082-97.413s-19.541-37.041-3.527-61.713S433.027,296.1,433.027,296.1c-2.334-9.333-9.626-12.542-28.563-21.579,0,0-1.13-.376-2.886-.971-4.011,16.29-12.475,29.243-27.468,31.883-19.537,3.442-37.17-8.474-46.089-29.395-8.6,2.54-18.179,5.245-22.742,7.814,0,0,23.915,51.915,28.476,81.271S308.778,426.176,319.682,472.259Z" transform="translate(-298.503 -190.101)"/><g transform="translate(29.519 50.288)"><path class="c" d="M361.835,323.325c14.993-2.64,23.456-15.593,27.468-31.883-6.275-2.123-21.031-7.19-25.134-9.241-5.25-2.625-3.792-23.915-3.792-23.915L332.656,266.2v20.673c0,1.938-7.92,4.409-16.909,7.062C324.666,314.851,342.3,326.765,361.835,323.325Z" transform="translate(-315.746 -258.286)"/><path class="d" d="M351.249,258.444l-27.72,7.912v17.568c11.714,6.327,24.856,18.074,29.321,39.529,14.9-2.7,23.326-15.617,27.324-31.853-6.275-2.123-21.031-7.19-25.134-9.241C349.791,279.734,351.249,258.444,351.249,258.444Z" transform="translate(-306.617 -258.101)"/></g><path class="e" d="M385.453,318.878c-12.37,3.783-24.045,7.942-30.223,7.942-12.251,0-30.334-17.207-38.886-6.686s-9.822,17.479-3.127,22.144,28.013-1.749,38.221.291c4.554.913,20.095,1.7,36.6,1.449C389.447,337.456,389.243,325.462,385.453,318.878Z" transform="translate(-294.204 -139.452)"/><path class="f" d="M375.966,285.684c-2.875-11.5-26.542,9.626-20.708,28.874,5,16.508,3.183,38.686,3.183,38.686l23.17,23.439C389.486,367.057,378.3,295.016,375.966,285.684Z" transform="translate(-240.964 -179.689)"/><path class="g" d="M378.1,315.22c-8.959-1.31-21.788,2.047-33.941,5.765,3.789,6.584,3.994,18.578,2.588,25.14,20.48-.315,42.452-2.245,46.811-7.573C393.554,338.553,404.053,319.01,378.1,315.22Z" transform="translate(-252.906 -141.559)"/><path class="h" d="M322.1,246.079c-4.865,9.463-4.324,41.633,9.191,44.607,11.808,2.6,18.385-8.922,18.385-8.922V260.427a15.6,15.6,0,0,1-7.57-11.645c-.728-6.538-4.6-7.231-4.6-7.231S329.394,246.351,322.1,246.079Z" transform="translate(-282.064 -227.626)"/><path class="i" d="M321.174,360.415c-6.1-12.288-10.156-27.778-13.731-36.522-6.742-16.5-7.84-39.5,1.495-44.749,17.207-8.813,24.5,21.49,25.664,30.286s3.5,29.352,9.917,36.718Z" transform="translate(-302.161 -185.398)"/><path class="j" d="M378.4,303.766c-11.664-7.29,1.336-47.5-18.224-62.973-16.105-12.738-41.794-3.159-41.794,20.9v57.656c6.369-1.99,11.177-3.822,11.177-5.332V297.078c-10.736-6.834-10.958-34.617-6.4-43.482,7.3.272,15.41-4.528,15.41-4.528s3.868.693,4.6,7.231a15.6,15.6,0,0,0,7.57,11.645v21.338c0,20.034,4.822,41.941,16.242,43.156s13.363-13.85,22.111-12.879C389.093,319.558,390.065,311.054,378.4,303.766Z" transform="translate(-283.132 -235.143)"/><path class="k" d="M327.592,302.308c-6.371,8.709-16.349,16.318-16.681,29.08,5.419,10.9,12.446,19.274,22.179,18.178,14.35-1.617,19.313-18.5,21.01-33.954C344.517,316.349,332.308,308.764,327.592,302.308Z" transform="translate(-291.898 -156.364)"/><path class="l" d="M340.252,266.183c-2.736,1.245-12.436,9.7-12.436,11.814s4.352,18.033,4.352,22.883-4.446,25.984-10.282,38.489a32.568,32.568,0,0,1-3.3,5.411c4.715,6.456,16.925,14.041,26.507,13.3a168.691,168.691,0,0,0,.865-18.255s.98-35.351,2.584-37.863c1.462-2.295,1.452-6.076,1.452-9.3v-6.551s2.227-.141,2.355-3.97c0-.113,0-.23,0-.352C352.355,277.626,342.987,264.94,340.252,266.183Z" transform="translate(-282.894 -198.835)"/></g><g transform="translate(228.758 17.682)"><g transform="translate(222.795)"><path class="m" d="M436.6,273.335V376.522s34.438,1.049,33.387,0,0-47.941,0-47.941Z" transform="translate(-436.544 -175.52)"/><path class="n" d="M481.711,329.454c2.846,19.313,1.065,41.32,0,49.633s-25.553,82.622-25.553,82.622h59.7l16.438-78.722-21.816-60.139Z" transform="translate(-413.605 -117.447)"/><path class="o" d="M484.347,329.454c2.846,19.313,1.065,41.32,0,49.633s-30.436,83.248-30.436,83.248h64.581l16.438-79.348-21.816-60.139Z" transform="translate(-416.24 -117.447)"/><path class="p" d="M533.235,316.464c8.794,27.565,48.2,36.479,37.33,81-7.846,32.139-23.856,72.358-23.856,72.358H472.2s23.367-70.067,23.367-79.348S480.9,333.506,480.9,333.506Z" transform="translate(-394.785 -124.934)"/><path class="q" d="M448.677,262.593c-8.794,4.192-16.827,22.859-8.794,40.383s9.176,14.393,12.223,28.15,1.851,21.377,27.022,38.521,24.41,21.716,25.553,30.479,72.006,6.858,70.863-25.908.665-70.6-20.432-88.446S448.677,262.593,448.677,262.593Z" transform="translate(-436.574 -188.12)"/><path class="r" d="M438.1,243.922V342.27s35.705-19.159,35.388-37.9-16.145-60.444-16.145-60.444Z" transform="translate(-434.788 -210.019)"/><path class="s" d="M449.638,282.243s4.754,7.7,6.367,11-5.543,17.933-3.183,30.468,17.868,10.4,21.333,0c1.045-3.133,3.82-25.373,3.82-25.373V261.564Z" transform="translate(-421.252 -189.327)"/><path class="d" d="M456,293.247c10.032-11.24,20.419,36.357,3.972,38.771.039.011.08.013.12.024l2.355.261a12.572,12.572,0,0,0,11.7-8.587c1.045-3.133,3.82-25.373,3.82-25.373V261.564l-28.337,20.679S454.392,289.94,456,293.247Z" transform="translate(-421.252 -189.327)"/><path class="t" d="M440.964,257.168c-4.88,30.258.487,58.149,15.076,61.454s35.5-12.653,35.5-26.729,14.1-50.752-1.945-59.125S444.073,237.888,440.964,257.168Z" transform="translate(-433.487 -226.07)"/><path class="r" d="M454.529,256.66a128.347,128.347,0,0,1-13.211,9.724c-5.589,3.322-4.22-15.862,6.606-24.878s25.021-16.69,30.777-11.512c0,0,18.033-4.987,28.967,13.429s11.7,34.914,15.156,39.519,9.209,7.483,6.523,16.114c0,0,19.182-3.835,22.061,9.4s1.919,17.516,1.919,17.516-5.962-4.663-18.189-8.944c0,0-8.235,6.486-16.1,6.486s-17.774,31.735-31.587,31.735l-.115-75.569S456.132,275.7,454.529,256.66Z" transform="translate(-434.788 -228.319)"/></g><g transform="translate(0 60.713)"><path class="u" d="M401.507,315.349c-36.246,37.741-67.466,152.868-67.466,152.868h52.034L418.6,391.783Z" transform="translate(-334.041 -186.955)"/><path class="v" d="M554.575,336.636c-7.583-8.618-47.973-36.97-99.473-33.888-45.409,2.718-82.138,16.744-89.3,27.654-5.237,7.979,6.234,61.843,14.215,83.289a188.079,188.079,0,0,1,11.471,63.838s128.423-.75,129.17,0,15.96-47.38,17.955-71.319S536.122,355.838,554.575,336.636Z" transform="translate(-298.337 -202.009)"/><path class="w" d="M447.179,282.055s.641,39.912,0,51.826-19.108,22.637-25.958,22.935-22.042-9.828-24.426-26.807v-36.04Z" transform="translate(-260.436 -226.006)"/><path class="d" d="M447.42,303.738c-.078-11.566-.241-21.683-.241-21.683L396.8,293.969v29.554c4.2,18.472,32.061,13.422,38.7-4.083C439.291,309.405,442.542,306.426,447.42,303.738Z" transform="translate(-260.436 -226.006)"/><path class="x" d="M390.7,294.082c1.893,29.243,13.811,57.551,32.7,54.566,23.424-3.7,30.536-39.225,29.61-58.588s-11.957-31.464-28.752-31.479C408.279,258.566,389.1,269.324,390.7,294.082Z" transform="translate(-267.696 -253.539)"/><path class="y" d="M426.565,285.478c-1.252,5.832-4.089,10.254-6.336,9.88s-3.051-5.406-1.8-11.236,4.089-10.254,6.336-9.88S427.819,279.648,426.565,285.478Z" transform="translate(-235.754 -235.196)"/><path class="j" d="M392.783,301.378c-3.568-5.458-3.816-7.605-3.553-16.675s7.914-9.387,7.753-13.261,4.783-14.289,24.973-15.128,18.976,8.418,25.229,9.02,15.947,7.016,11.225,29.973c0,0-5.489.526-7.651,11.618a1,1,0,0,1-1.76.335,14.59,14.59,0,0,1-1.851-4.252c-1.506-5.545-7.549,2.788-8.644-8.268-.782-7.879-20.006,6.58-34.267-6.2,0,0-2.119,2.82-8.194,2.64C392.515,291.074,392.783,301.378,392.783,301.378Z" transform="translate(-269.399 -256.26)"/><g transform="translate(119.087 102.395)"><path class="z" d="M406.109,351.716s1.662,2.125,4.767-2.616,13.724-19.137,17.407-17.716l-.017-.024c-7.47-1.554-20.01-11.262-22.157-26.568v-1.239c-5.941.828-11.636,1.838-17.046,2.983C387.566,314.994,393.908,342.368,406.109,351.716Z" transform="translate(-388.847 -303.185)"/><path class="z" d="M432.256,308.864c-.556,10.362-14.593,19.819-22.748,22.3h0c3.85-1.5,18,17.12,20.456,21.223s6.958-1.451,11.438-12.9c3.255-8.309,8.285-22.629,6.175-32.739a144.979,144.979,0,0,0-15.141-3.372C432.393,305.537,432.334,307.417,432.256,308.864Z" transform="translate(-364.613 -303.384)"/></g><path class="aa" d="M405.152,308.807v-8.676c-7.529,3.307-14.5,6.1-15.271,10.41-1.506,8.444,5.271,32.982,15.271,41.648,0,0,1.662,2.125,4.77-2.616s13.724-15.595,17.407-14.174l-.017-.024C419.839,333.824,407.3,324.113,405.152,308.807Z" transform="translate(-268.792 -204.805)"/><path class="ab" d="M444.847,308.942c-2.084-4.715-8.844-8.544-12.3-10.182-.017,6.408-.1,12.118-.28,15.528-.556,10.362-14.593,19.819-22.748,22.3h0c3.853-1.5,18,13.576,20.458,17.679s5.484-.678,10.463-11.918C445.5,330.91,448.247,316.632,444.847,308.942Z" transform="translate(-245.52 -206.413)"/><path class="ac" d="M494.29,435.183c0-33.1-9.641-99.425-24.936-116.965,0,0-23.941,12.8-31.514,53.39-2.262,12.125,1.591,46.772,2.588,61.4Z" transform="translate(-213.117 -183.59)"/><path class="ad" d="M420.768,413.736h72.644c10.76,0,22.333-8.785,20.708-32.583s-40.564-20.46-53.862-2.173l-40.025,6.112Z" transform="translate(-232.946 -129.561)"/><path class="ae" d="M427.647,403.175l3.435-3.222,10.449,3.7a16.907,16.907,0,0,0,5.65.971h20.736s9.813-2.1,10.134-13.683-9.652-14.96-13.993-14.96H441.321a16.606,16.606,0,0,1-3.39-.35l-16.169-3.379a9.969,9.969,0,0,0-6.995,1.112l-9.163,5.265a23.153,23.153,0,0,0-4.848,3.716l-16.627,16.664a3.291,3.291,0,0,0,2.329,5.615h37.511A5.37,5.37,0,0,0,427.647,403.175Z" transform="translate(-276.427 -120.454)"/></g><g transform="translate(136.988 99.989)"><path class="af" d="M555.526,276.164c-15.573-9-42.865,16.6-36.994,46.859s-27.361,67.805-27.361,67.805-37.665,15.123-52.784,17.99a58.51,58.51,0,0,1,9.639,22.648c24.734-2.036,60.226-7.066,74.57-19.019C544.275,394.38,567.3,327.764,567.307,306.6,567.314,281.97,555.526,276.164,555.526,276.164Z" transform="translate(-348.642 -274.336)"/><path class="ag" d="M482.891,336.693h-48.7s-34.775,11.779-35.677,13.794-2.712,13.991,0,16.81,20.323,7.786,24.838,6.882,39.745-14,47.873-14c2.751,0,12.594-.261,25.24-1.3a58.51,58.51,0,0,0-9.639-22.648A22.418,22.418,0,0,1,482.891,336.693Z" transform="translate(-397.085 -201.745)"/></g></g><path class="ah" d="M292.952,335.661s12.2,9.656,24.682,0,3.883-26.142,3.883-26.142l-28.565,15.217Z" transform="translate(-153.476 -115.398)"/><path class="ai" d="M313.726,279.916v72.194H290.25V283.867Z" transform="translate(-156.646 -150.12)"/><g transform="translate(35.313 255.084)"><path class="aj" d="M296,389.651c-2.26,12.047-15.1,28.967-23.263,53.4h46.654c4.474-29.349,8.516-68.742,2.136-103.756h-26.9C297.108,351.093,298.123,378.317,296,389.651Z" transform="translate(-212.502 -335.561)"/><path class="ak" d="M262.85,387.039s5.4,26.214,9.089,56.009h12.39c8.166-24.43,21-41.35,23.263-53.4,2.125-11.334,1.11-38.558-1.373-50.359H263.963Z" transform="translate(-224.096 -335.561)"/><path class="al" d="M327.138,341.306a25.4,25.4,0,0,0-1.026-3.731h-81.1c1.117,39.034,4.194,77.879,6.041,107.487h54.192c8.166-24.43,21-41.35,23.263-53.4C330.636,380.331,329.621,353.107,327.138,341.306Z" transform="translate(-245.015 -337.575)"/></g><path class="am" d="M316.955,252.4c-47.969-12.872-80.369,8.544-85.688,39.3-4.859,28.089,30.412,115.066,30.412,150.237,0,0,56.858,29.31,109.023,3.731,0,0-7.825-37.3,0-70.343s18.228-51.969,9.391-75.671C372.373,278.948,339.391,258.423,316.955,252.4Z" transform="translate(-226.366 -186.856)"/><path class="an" d="M293.776,235.828s-18.1,22.77-25.745,30.027,6.458,22.1,17.153,28.406c7.064,4.163,21.959,8.783,17.568-4.2,0,0-2.484-7.255,9.548-17.568C312.3,272.492,298.932,232.582,293.776,235.828Z" transform="translate(-185.258 -202.05)"/><path class="d" d="M299.363,268.406s-6.2-18.5-11.781-29.282l-5.9,2.783c-6.873,14.1-8.1,40.655,8.131,44.066C289.815,285.974,287.332,278.719,299.363,268.406Z" transform="translate(-172.321 -197.964)"/><path class="ao" d="M287.251,242.671c1.532-8.683-6.225-9.333-8.659-2.088-2.781,8.281.282,14.017,3.468,12.107,0,0-6.182,18.7,1.6,29.958s17.72,6.934,30.14-5.3c10.68-10.517,17.633-23.367,18.713-28.317,2.816-12.918-10.6-23.365-23.185-22.687C293.928,227.172,287.251,242.671,287.251,242.671Z" transform="translate(-171.595 -212.991)"/><path class="r" d="M284.326,249.862c-.484,5.113.352,9.072,3.359,7.331s10.126-12.027,16.614-4.589,11.749,14.359,23.263,13.135c14.873-1.584,18.324-21.716,5.221-25.319,0,0,5.7-6.919-4.43-10.128-9.272-2.94-9.643-1.119-16.132-8.4-3.735-4.191-26.12-1.956-32.224,21.042C280,242.939,285.083,241.9,284.326,249.862Z" transform="translate(-168.67 -220.182)"/><path class="ap" d="M270.865,358.32c.476-10,6.664-35.955,15.391-52.534s4.444-37.9-7.418-46.248c-11.781-8.292-28.3-6.821-36.12,4.726-21.038,31.051-14.928,100.862-3.585,124.422,2.253,4.678,7.683,7.718,15.052,9.543C238.213,390.936,254.227,354.518,270.865,358.32Z" transform="translate(-228.763 -180.188)"/><path class="aq" d="M276.93,336.895l31.516-38.132a5.42,5.42,0,0,1,5.615-1.773l53.464,14.734a1.732,1.732,0,0,1,.7,2.955l-40.44,36.5a3.509,3.509,0,0,1-3.159.811l-46.3-10.949A2.578,2.578,0,0,1,276.93,336.895Z" transform="translate(-172.964 -130.321)"/><path class="ar" d="M360.384,315.661c-1.832-5.237-7.066-9.163-10.121-10.037-2.219-.632-18.709-.345-27.568-.141a19.045,19.045,0,0,0-9.717,2.9c-2.79,1.754-6.269,3.694-8,3.694H277.134a97.157,97.157,0,0,0-16.434-9.765c-16.638-3.8-32.652,32.615-16.681,39.91,26.853,6.66,79.856-3.062,102.135-10.676a24.39,24.39,0,0,0,12.279-9.057C360.019,320.194,361.1,317.7,360.384,315.661Z" transform="translate(-218.599 -124.178)"/></g><line class="as" x2="715.811" transform="translate(240.468 639.278)"/><g transform="translate(439.999 519.945)"><path class="at" d="M382.98,396.055h76.3a7.921,7.921,0,0,0,7.922-7.922h0a3.615,3.615,0,0,0-3.613-3.614H382.98a3.615,3.615,0,0,0-3.614,3.614v4.309A3.613,3.613,0,0,0,382.98,396.055Z" transform="translate(-204.74 -270.648)"/><path class="au" d="M342.194,457.521H501.568a9.312,9.312,0,0,0,8.981-11.779l-28.13-102.4a15.27,15.27,0,0,0-14.724-11.225H308.319a9.315,9.315,0,0,0-8.981,11.781l28.13,102.4A15.274,15.274,0,0,0,342.194,457.521Z" transform="translate(-299.001 -332.114)"/></g><g transform="translate(854.655 527.913)"><g transform="translate(46.259 38.16)"><path class="j" d="M560.847,353.343c-2.405.654-5.736,3.316-9.411,6.849a145.407,145.407,0,0,1-12.844,11.464c-3.085,2.382-6.138,4.539-9.081,6.64-2.877,2.149-5.736,4.152-8.2,6.206-5.028,4.02-8.865,7.988-10.187,10.967,1.321-2.949,1.884-8.418,4.391-15.05a48.613,48.613,0,0,1,5.328-10.358,43.535,43.535,0,0,1,9.2-9.715,35.115,35.115,0,0,1,18.637-6.684C554.224,353.2,558.461,354,560.847,353.343Z" transform="translate(-511.12 -353.343)"/></g><g transform="translate(41.223)"><path class="j" d="M511.868,413.838c.235-2.968-1.217-7.733-2.177-14.017a59.783,59.783,0,0,1,.4-22.594,83.454,83.454,0,0,1,11.277-26.04c4.339-6.875,8.44-11.849,10.008-15.406-1.573,3.566-2.423,9.967-3.333,17.794-.947,7.84-1.9,17.06-4.129,26.788a106.913,106.913,0,0,1-7.19,20.36C514.19,406.357,512.1,410.863,511.868,413.838Z" transform="translate(-508.802 -335.781)"/></g><g transform="translate(0 26.729)"><path class="j" d="M489.831,348.082c2.388,1.11,6.96,1.132,12.622,2.827a38.34,38.34,0,0,1,17.97,10.9,49.232,49.232,0,0,1,11.39,23.682c1.434,7.392,1.023,13.222,1.749,16.586-.721-3.411-3.816-8.377-8.2-13.639-4.335-5.343-9.935-10.884-15.48-17.144-4.6-5.056-8.068-10.169-11.349-14.478C495.326,352.478,492.252,349.2,489.831,348.082Z" transform="translate(-489.831 -348.082)"/></g><g transform="translate(19.331 58.994)"><path class="av" d="M550.995,363.86H503.947a4.162,4.162,0,0,0-4.133,4.657l5.739,48.1a4.163,4.163,0,0,0,4.135,3.67h35.568a4.163,4.163,0,0,0,4.135-3.67l5.739-48.1A4.163,4.163,0,0,0,550.995,363.86Z" transform="translate(-497.488 -361.841)"/><path class="aw" d="M498.742,365.124l2.125,17.809a1.961,1.961,0,0,0,1.947,1.73h51.8a1.961,1.961,0,0,0,1.947-1.73l2.125-17.809a1.96,1.96,0,0,0-1.947-2.193H500.688A1.96,1.96,0,0,0,498.742,365.124Z" transform="translate(-498.728 -362.931)"/></g></g></g></svg>