<svg xmlns="http://www.w3.org/2000/svg" xmlns:xlink="http://www.w3.org/1999/xlink" width="805.622" height="287.376" viewBox="0 0 805.622 287.376"><defs><style>.a{opacity:0.28;}.b,.i{fill:#004fd0;}.b{opacity:0.33;}.c{fill:#e55353;}.d{fill:#3b3b40;}.e{fill:#eea886;}.f{fill:#3c4145;}.g{fill:#494f80;}.h{fill:#a77860;}.j{fill:#2f4563;}.k{fill:#525252;}.l{fill:#0e1e2b;}.m{fill:#5b94e2;}.n{fill:#665955;}.o{fill:#877671;}.p{fill:#34395c;}.q{fill:#3c4169;}.r{fill:#393d63;}.s{fill:#3e6499;}.t{fill:#2b2d4a;}.u{fill:#363a5e;}.v{fill:#3f446e;}.w{fill:#eddad3;}.x{fill:#e8734d;}.y{fill:#cfbeb8;}.z{fill:#d6c5be;}.aa{fill:#6a77bf;}.ab{fill:#323657;}.ac{fill:#fae6de;}.ad{fill:#252740;}.ae{fill:#3d426b;}.af{fill:#353a3d;}.ag{fill:#81807e;}.ah{fill:#292c47;}.ai{fill:#223247;}.aj{fill:#616161;}.ak{fill:#e0cec7;}.al{fill:#c98462;}.am{fill:#fff;}.an{fill:#162d40;}.ao{fill:#1d3b54;}.ap{fill:#285173;}.aq{fill:#252e3b;}.ar{fill:#54281a;}.as{fill:#873f2b;}.at{fill:#587aa3;}.au{fill:url(#a);}.av{fill:#ffca55;}.aw{fill:#6bb0ff;opacity:0.73;}.aw,.bi{mix-blend-mode:screen;isolation:isolate;}.ax{fill:#434343;}.ay{fill:#545554;}.az{fill:#decbc4;}.ba{fill:#495055;}.bb{fill:#5d676c;}.bc{fill:#e2d2ca;}.bd{fill:#51565c;}.be{fill:#f5e2d9;}.bf{fill:#464157;}.bg{fill:#ad9f99;}.bh{fill:#69737a;}.bi{fill:#a3cdff;opacity:0.98;}.bj{fill:#db9c7c;}</style><linearGradient id="a" y1="0.5" x2="1" y2="0.5" gradientUnits="objectBoundingBox"><stop offset="0" stop-color="#ff9f55"/><stop offset="1" stop-color="#ffd255"/></linearGradient></defs><g class="a" transform="translate(-95.536 -807.114)"><path class="b" d="M1024.727,1703.653c0,12.384-180.345,22.424-402.811,22.424S219.1,1716.037,219.1,1703.653s180.345-22.424,402.811-22.424S1024.727,1691.269,1024.727,1703.653Z" transform="translate(-123.569 -631.586)"/><g transform="translate(300.46 848.937)"><g transform="translate(50.439 203.073)"><path class="c" d="M997.237,1693.2s5.548,9.4,7.891,10.941c3.18,2.085,1.187,4.194-.323,4.2s-9.222.554-10.922-1.374-2.543-7.708-4.123-9.22-3.028-7.089.77-8.981C994.694,1686.689,997.237,1693.2,997.237,1693.2Z" transform="translate(-988.121 -1688.355)"/></g><g transform="translate(52.708 202.989)"><path class="d" d="M999.72,1688.1s6.033,11.808,7.128,13.435-2.062,1.625-4.019.852-7.033-8.606-7.584-10.111a8.478,8.478,0,0,1-.151-3.684Z" transform="translate(-994.953 -1688.102)"/></g><g transform="translate(50.716 209.708)"><path class="c" d="M988.953,1708.338l1.466,11.292.777.034-.241-8.124Z" transform="translate(-988.953 -1708.338)"/></g><g transform="translate(3.029 191.996)"><path class="c" d="M854.3,1661.751s1.329,10.838,2.863,13.182c2.082,3.182-.586,4.319-1.972,3.718s-8.676-3.177-9.463-5.623.748-8.082-.1-10.1.057-7.709,4.294-7.925C854.573,1654.765,854.3,1661.751,854.3,1661.751Z" transform="translate(-845.347 -1654.997)"/></g><g transform="translate(6.272 192.002)"><path class="d" d="M860.887,1656.412s.814,13.235,1.168,15.164-2.54.666-4.025-.825-3.009-10.7-2.914-12.3a8.478,8.478,0,0,1,1.334-3.437Z" transform="translate(-855.112 -1655.015)"/></g><g transform="translate(0 196.859)"><path class="c" d="M839.391,1669.643l-3.166,10.937.7.342,3.024-7.543Z" transform="translate(-836.226 -1669.643)"/></g><g transform="translate(41.012 37.215)"><path class="e" d="M977.382,1254.1c-.18-.877-6.882-13.861-8.089-17.773s-2.248-7.5-2.854-9.045c-.04-.1-.1-.28-.191-.518-.411-1.149-1.3-3.714-2.226-6.11q-.1-.251-.195-.5l-.094-.915c-.649-1.66-.005-2.617.008-3.939a4,4,0,0,0-.212-1.318c-.006-.018-.011-.036-.018-.053a29.627,29.627,0,0,1-1.447-5.266c-.374-3.63-2.335-19.784-2.335-19.784s6.351,3.288,7.058,5.827c1.072,3.851,2.164,9.58,2.434,11.342s3.032,16.431,3.608,19.414a38.877,38.877,0,0,0,2.065,7.483c.829,1.973,6.346,19.561,6.687,21.136S977.562,1254.978,977.382,1254.1Z" transform="translate(-959.73 -1188.881)"/><path class="e" d="M1011.465,1379.748a32.885,32.885,0,0,1-.549,4.2c-.213,1.048.663,7.547.839,8.378.147.7.544.205.706-.3.093-.287.15-2.594.368-3.85.184-1.056.423-1.478.651-1.184a22.117,22.117,0,0,1,1.141,6.238c-.089,1.839.979,5.867,1.817,5.122s1.811-8.507,1.17-11.265a37.037,37.037,0,0,0-2.211-6.089Z" transform="translate(-993.897 -1316.368)"/></g><g transform="translate(32.974 91.737)"><path class="d" d="M937.694,1377.794c.276,1.335,2.045,6.921,4.025,13.128h0c1.805,5.658,3.787,11.831,4.976,15.771.444,1.47.777,2.629.949,3.334,1.14,4.664-.142,11.981-.556,18.1s8.462,40.376,8.462,40.376c1.555.725,4.475-4.176,4.475-4.176-1.14-2.177-.98-40.822-.358-43.206s1.036-9.017.414-11.608a10.1,10.1,0,0,1-.2-2.079c-.052-3.271.621-8.678,1.033-14.607.518-7.463-2.384-26.015-2.8-27.673-.038-.153-.1-.367-.176-.631-.763-2.6-3.222-9.989-3.222-9.989-4.985-1.483-8.74-1.752-11.542-1.18a8.58,8.58,0,0,0-6.77,5.808C933.965,1365.9,937.336,1376.063,937.694,1377.794Z" transform="translate(-935.524 -1353.072)"/></g><g transform="translate(7.079 86.58)"><path class="d" d="M857.545,1443.881l5.048,1.775c.856-4.144,21.357-33.149,22.608-36.362a46.933,46.933,0,0,0,2.584-11.712c0-.407.03-1.094.087-1.986.221-3.456.854-9.974,1.762-15.048.169-.947.347-1.842.535-2.659,1-4.375,1.179-19.324,1.19-28.116.006-3.912-.021-6.6-.021-6.6s-.087-.069-.25-.192c-1.89-1.43-14.013-10.15-18.24-2a24.44,24.44,0,0,0-2.288,6.875c-1.356,7.387-.026,15.708,1.068,23.288.936,6.486,2.73,15.65,3.245,22.451.284,3.741.181,6.769-.665,8.24-2.385,4.146-4.715,7.655-9.535,22.283C863.1,1428.874,857.545,1443.881,857.545,1443.881Z" transform="translate(-857.545 -1337.542)"/></g><g transform="translate(16.437 0)"><path class="f" d="M913.139,1093.556s2.637-17.056-11.489-16.741-13.937,8.748-13.685,17.119,5.664,7.741-.441,19.384,5.287,11.643,5.287,11.643l8.839-12.147Z" transform="translate(-885.725 -1076.811)"/></g><g transform="translate(21.637 1.442)"><path class="e" d="M913.655,1081.352s9.566,1.51,9.944,15.1-2.581,16.49-10.951,13.658-11.014-17.056-11.2-19.259S900.753,1079.716,913.655,1081.352Z" transform="translate(-901.385 -1081.153)"/></g><g transform="translate(17.107 34.667)"><path class="g" d="M887.744,1195.468c-.037,4.681,5.344,15.87,6.173,19.325s2.142,4.561,1.036,8.983-4.533,19.382-4.395,20.7,30.834,6.154,35.464,5.256c0,0-5.659-21.118-6.073-23.536s.5-11.485.711-14.042,2.8-8.06,2.708-10.622c-.089-2.611-1.371-4.865-3.165-7.653-.556-.865-1.139-1.745-1.723-2.6a49.347,49.347,0,0,0-4.731-6.193,15.008,15.008,0,0,0-1.9-1.52l-.005,0a8.838,8.838,0,0,0-1.96-1.034l-8.223-1.313s-5.125,1.854-8.073,2.544C893.583,1183.754,887.829,1184.593,887.744,1195.468Z" transform="translate(-887.743 -1181.21)"/></g><g transform="translate(41.203 37.014)"><path class="g" d="M960.305,1188.277l4.766,7.511,4.4,6.932c-.01-.037-.3-1.087-.8-4.126-.095-.578-.2-1.226-.3-1.953a5.122,5.122,0,0,0-.138-.64h0c-1.882-4.34-7.7-7.613-7.916-7.721Z" transform="translate(-960.305 -1188.277)"/></g><g transform="translate(11.317 37.37)"><path class="e" d="M876.375,1196.952s1.321-8.909,7.85-7.441c6.273,1.411.394,13.093-.066,14.475s-5.107,12.68-5.51,14.16c-1.274,4.681-.08,4.791,1.837,5.9,5.658,3.259,17.292,3.044,18.633,3.94s1.263,3.684-.992,3.781c-2.933.126-19.692-1.451-22.03-1.68-2.266-.222-6.78-.412-5.6-8.469C871.3,1216.187,876.375,1196.952,876.375,1196.952Z" transform="translate(-870.307 -1189.348)"/></g><g transform="translate(27.479 24.079)"><path class="e" d="M919.017,1149.525c.829,1.566,1.7,11.286,1.7,11.286s11.7,4.422,10.5,1.921a9.576,9.576,0,0,1-.714-3.879,18.785,18.785,0,0,1,.13-2.361c.03-.256.054-.4.054-.4S918.188,1147.959,919.017,1149.525Z" transform="translate(-918.977 -1149.325)"/></g><g transform="translate(20.872 1.213)"><path class="f" d="M916.019,1090.646s-4.909,7.992-9.378,11.14-2.2,5.664-2.2,5.664-11.659-24.545-.574-26.245,17.882-1.825,18.2,14.79C922.061,1096,917.026,1090.521,916.019,1090.646Z" transform="translate(-899.082 -1080.463)"/></g><g transform="translate(32.471 30.246)"><path class="h" d="M934.01,1167.9c1.8,2.649,6.541,3.362,6.541,3.362h0a18.781,18.781,0,0,1,.13-2.361C937.633,1169.483,934.01,1167.9,934.01,1167.9Z" transform="translate(-934.01 -1167.895)"/></g><path class="i" d="M968.217,1195.955h0a9.835,9.835,0,0,1,.463,2.644l-1.723-2.6s-3.078-4.413-4.133-5.56a17.487,17.487,0,0,0-2.5-2.153S966.377,1191.195,968.217,1195.955Z" transform="translate(-919.113 -1151.268)"/><path class="j" d="M933.714,1237l-18.44-1.526a1.419,1.419,0,0,0-1.532,1.309l-2.288,30.545a1.419,1.419,0,0,0,1.27,1.518l17.7,1.822a1.419,1.419,0,0,0,1.558-1.273l3.023-30.841A1.419,1.419,0,0,0,933.714,1237Z" transform="translate(-886.47 -1182.784)"/><path class="e" d="M925.861,1295.4s3.494.585,3.82.532,1.706-2.315,3.306-2.72a32.9,32.9,0,0,0,4.093-1.026c.493-.308.628,1.261-.909,1.9s-1.922,1.5.956,2.077c1.592.319,7.543-.345,7.049.66-.29.59-6.025,1.012-6.025,1.012s6.188-.028,6.4.346c.415.737-5.792,1-6.051.974,0,0,5.318.305,5.365.782.058.593-5.329.341-5.279.438,0,0,4.227.292,4.185.651-.055.473-3.776.531-4.5.446s-8.01-.914-9.232-1.157-3.287-.387-3.287-.387Z" transform="translate(-896.024 -1220.644)"/><path class="e" d="M901.958,1296.244a62.906,62.906,0,0,0,6.672,1.895c3.212.68-.108,4.53-.108,4.53s-5.564-.514-8.24-.776C898.987,1301.767,901.958,1296.244,901.958,1296.244Z" transform="translate(-878.793 -1223.378)"/><path class="g" d="M894.408,1203.055s-7.51-2.945-9.731-3.117c0,0,1.511-12.06,8.887-10.781S894.408,1203.055,894.408,1203.055Z" transform="translate(-868.588 -1151.787)"/><path class="g" d="M896.653,1391.883c.936,6.486,2.73,15.651,3.245,22.451,0,0,5.289,1.056,13,2,2.087.257,4.352.506,6.737.725,4.132.378,8.624.663,13.183.736-.052-3.271.621-8.677,1.033-14.607.518-7.462-2.384-26.015-2.8-27.673-.038-.153-.1-.367-.176-.631-3.729-2.052-9.078-3.438-14.493-4.372-2.379-.41-4.77-.734-7.041-.989-7.1-.8-13.027-.92-13.758-.932C894.228,1375.983,895.559,1384.3,896.653,1391.883Z" transform="translate(-875.49 -1271.704)"/><path class="e" d="M929.025,1182.468s5.514,8.477,3.647,9.218-11.969-.988-16.264-9.041C916.408,1182.646,922.83,1179.352,929.025,1182.468Z" transform="translate(-889.782 -1146.488)"/></g><g transform="translate(159.672 850.853)"><path class="k" d="M639.023,1386.751l-2.056-3.562a2.168,2.168,0,0,1,.793-2.961l11.646-6.724a2.168,2.168,0,0,1,2.961.794l2.056,3.561a2.168,2.168,0,0,1-.794,2.961l-11.646,6.724A2.168,2.168,0,0,1,639.023,1386.751Z" transform="translate(-562.151 -1276.705)"/><g transform="translate(73.732 95.451)"><path class="e" d="M639.32,1383.009a4.251,4.251,0,0,1-1.073-.833s-.418-.718-.746-1.209a3.973,3.973,0,0,0-.27-.369,7.782,7.782,0,0,1-1.512-1.976,52.155,52.155,0,0,1-1.432-5.828l2.465-1.257,2.14-1.506s5.659,3.723,6.211,4.6a2.665,2.665,0,0,1,.144.258,9.952,9.952,0,0,1,.52,1.979c.058.161.527,1.8.239,2.221a1.664,1.664,0,0,1-1.4.818,3.983,3.983,0,0,1-1.739,1.331,2.474,2.474,0,0,1-1.941,1S640.065,1383.22,639.32,1383.009Z" transform="translate(-634.287 -1370.03)"/></g><g transform="translate(19.753 106.593)"><path class="l" d="M484.555,1417.289l-11.174-2.493a2.111,2.111,0,0,1-1.6-2.517l1.572-7.046a2.111,2.111,0,0,1,2.517-1.6l11.174,2.494a2.111,2.111,0,0,1,1.6,2.517l-1.572,7.047A2.111,2.111,0,0,1,484.555,1417.289Zm-8.991-12.275a.7.7,0,0,0-.828.526l-1.572,7.046a.694.694,0,0,0,.526.828l11.174,2.494a.694.694,0,0,0,.828-.526l1.573-7.046a.694.694,0,0,0-.526-.828Z" transform="translate(-471.732 -1403.582)"/></g><g transform="translate(24.433 100.117)"><path class="e" d="M486.074,1394.688a4.108,4.108,0,0,1-.241-1.29s.158-.786.236-1.352a3.85,3.85,0,0,0,.042-.439,7.517,7.517,0,0,1,.174-2.4,50.391,50.391,0,0,1,2.7-5.129l2.587.672,2.512.284s1.7,6.318,1.538,7.306a2.46,2.46,0,0,1-.062.279,9.575,9.575,0,0,1-.893,1.763c-.062.154-.774,1.639-1.252,1.758a1.608,1.608,0,0,1-1.534-.305,3.845,3.845,0,0,1-2.109-.153,2.39,2.39,0,0,1-2.045-.52S486.477,1395.317,486.074,1394.688Z" transform="translate(-485.826 -1384.08)"/></g><g transform="translate(25.485 34.455)"><path class="m" d="M515.022,1204.752c-.5.641-2.47,4.312-4.558,8.23h0l-1.038,1.947-.822,1.545-.867,1.622c-1.166,2.182-2.149,4-2.641,4.814-1.407,2.343-3.7,10.866-4.253,12.553s-3.31,18.38-3.31,18.38-8.8.029-8.534-.635,3.619-18.682,4.29-21.395c.886-3.565,4.286-13.148,4.626-13.859s7.5-15.656,8.474-18.225a26.9,26.9,0,0,1,5.837-10.266c4.277-5.085,9.165-2.424,9.165-2.424C525.376,1189.891,516.039,1203.438,515.022,1204.752Z" transform="translate(-488.994 -1186.344)"/></g><g transform="translate(0 111.35)"><rect class="n" width="42.954" height="30.775" transform="translate(6.703 0) rotate(12.58)"/></g><g transform="translate(2.818 111.35)"><rect class="o" width="42.954" height="17.839" transform="translate(3.885 0) rotate(12.58)"/></g><path class="e" d="M574.315,1164.489a27.744,27.744,0,0,0,0-7.032s10.509,4.857,8.689,6.175a3.309,3.309,0,0,0-1.027,1.793,20.988,20.988,0,0,0-.447,5.626L585,1175.1C588.08,1179.327,574.052,1165.887,574.315,1164.489Z" transform="translate(-520.495 -1132.594)"/><g transform="translate(5.611 186.592)"><path class="p" d="M442.522,1647.986s.971,3.895,1.847,8.709,4.951,8.349,5.541,9.2,3.243,4.265.923,4.679-11.842-5.943-14.449-9.6c0,0-1.555-3.458-1.768-3.662s-1.54.826-1.54.826l-2.435-1.681a12.49,12.49,0,0,1-1.406-1.214c-.376-.44.509-2.9.644-3.132.155-.268,4.414-6.126,7.164-7.392S442.522,1647.986,442.522,1647.986Z" transform="translate(-429.143 -1644.497)"/></g><g transform="translate(92.165 200.474)"><path class="q" d="M696.158,1686.6s3.344,2.022,7.259,4.74,9.109,2.388,10.1,2.572,5.137.736,3.853,2.594-12.11,3.941-16.395,3.2c0,0-3.438-1.325-3.723-1.322s-.472,1.613-.472,1.613l-2.807.495a11.951,11.951,0,0,1-1.788.118c-.558-.047-1.6-2.3-1.726-2.592-.114-.278-1.242-7.21-.255-9.946S696.158,1686.6,696.158,1686.6Z" transform="translate(-689.797 -1686.302)"/></g><g transform="translate(13.261 180.037)"><path class="e" d="M460.992,1628.646a67.443,67.443,0,0,0-3.231,6.61c-.191.994-4.7,1.021-5.58-3.217,0,0,3.527-7.087,3.413-7.276S460.992,1628.646,460.992,1628.646Z" transform="translate(-452.181 -1624.757)"/></g><g transform="translate(14.023 98.396)"><path class="p" d="M494.142,1403.069s-.341,1.163-.879,3.008c-.351,1.2-.789,2.684-1.27,4.325-2.206,7.493-5.394,18.241-5.979,19.755-.916,2.359-5.137,9.271-5.769,9.669s-17.212,28.9-17.723,30.249c0,0-6.8-3.085-8.048-5.347,0,0,11.347-31.416,15.928-36.933,4.415-5.314,4.171-37.034,8.181-46.612S496.582,1394.754,494.142,1403.069Z" transform="translate(-454.475 -1378.899)"/></g><g transform="translate(90.029 194.441)"><path class="e" d="M689.7,1668.135a66.087,66.087,0,0,0,2.377,6.74c.556.814-2.474,3.89-5.995,1.571,0,0-2.5-7.268-2.712-7.321S689.7,1668.135,689.7,1668.135Z" transform="translate(-683.365 -1668.135)"/></g><g transform="translate(38.176 92.599)"><path class="r" d="M554.849,1369.755s14.185,32.749,15.819,37.649.849,9.092,1.743,11.131,13.927,47.689,13.927,47.689-6.893,3.776-10.011,2.256c0,0-11.8-30.042-14.3-34.96-2.341-4.62-3.644-13.9-6.65-19.866-2.1-4.178-27.941-36.062-28.168-47.838S554.849,1369.755,554.849,1369.755Z" transform="translate(-527.211 -1361.44)"/></g><g transform="translate(48.256 32.259)"><path class="e" d="M563.229,1179.731s4.054,1.646,5.435,5.358.8,8.626.858,10.324,2.824,18.321,3.176,18.816,5.921,10.759,8.213,15.965a78.483,78.483,0,0,0,7.23,11.884l-3.806,2.23s-17.342-20.4-18.363-25.98-7.75-22.394-7.75-22.394S554.9,1183.492,563.229,1179.731Z" transform="translate(-557.567 -1179.731)"/></g><path class="e" d="M573.622,1087.179a11.826,11.826,0,0,1,12.116,11.184,28.81,28.81,0,0,1-1.01,4.427c-.66,1.942.932,7.767.466,8.038a12.648,12.648,0,0,1-2.369.583s-2.214,6.252-4.427,6.136-10.55-2.084-14.278-10.045S559.513,1087.464,573.622,1087.179Z" transform="translate(-512.117 -1085.652)"/><path class="d" d="M583.992,1095.3s-5.773,3.7-11.417,4.323-9.4,6.323-9.4,6.323-8.257-10.983-1.111-19.475S585.52,1084.556,583.992,1095.3Z" transform="translate(-510.37 -1082.589)"/><path class="m" d="M558.967,1211.254c-1.737,1.827-.31,6.058-.544,8.466-.062.641-.264,2.751-.544,5.546-.289,2.889-.662,6.51-1.047,10v0c-.154,1.4-.309,2.769-.463,4.068a71.669,71.669,0,0,1-1.249,8.315c-.854,2.407-19.9,2.522-27.43-5.633,0,0-1.327-2.683,7.321-18.3,1.733-3.133.034-18.675-1.364-22.791s-1.895-18.106,9.479-22.291c0,0,6.832,5.9,9.161,8.543s9.942,12.194,10.64,15.067S560.856,1209.267,558.967,1211.254Z" transform="translate(-489.307 -1146.739)"/><path class="h" d="M586.07,1167.144a3.309,3.309,0,0,0-1.027,1.793,18.136,18.136,0,0,1-6.142-6.221C581.126,1165.458,586.07,1167.144,586.07,1167.144Z" transform="translate(-523.561 -1136.106)"/><path class="s" d="M600.222,1257.742c-.062.641-.264,2.751-.544,5.546h0c-1.741,1.659-13.577-21.218-8-27.73,0,0,3.946,15.356,4.376,16.133S600.222,1257.742,600.222,1257.742Z" transform="translate(-531.105 -1184.761)"/><g transform="translate(47.807 32.83)"><path class="m" d="M562.417,1181.45s4.516,2.1,5.96,5.978.834,9.015.9,10.789,2.952,19.148,3.319,19.665a119.218,119.218,0,0,1,7.893,13.884c2.4,5.441,7.788,12.912,7.788,12.912l-6.486,3.636s-15.5-19.583-16.966-25.329c-1.568-6.138-7.357-24.223-7.357-24.223S552.477,1183.283,562.417,1181.45Z" transform="translate(-556.214 -1181.45)"/></g><path class="s" d="M545.988,1246.564l-.822,1.546-.867,1.622c-.387-4.661-.567-16.026-.567-16.026a51.954,51.954,0,0,0,1.007,5.151C545.218,1240.509,545.889,1245.771,545.988,1246.564Z" transform="translate(-500.071 -1183.523)"/><path class="d" d="M541.015,1082.6s-14.655-1.134-14,16.7-2.34,22.519-8.824,30.6-.8,18.153,5.486,12.967,13.486-16.9,13.622-29.427S541.015,1082.6,541.015,1082.6Z" transform="translate(-481.094 -1082.583)"/><path class="e" d="M585.169,1129.13a1.731,1.731,0,0,0-2.991-1.32c-1.825,1.437.427,6.68,1.9,6.214S585.169,1130.256,585.169,1129.13Z" transform="translate(-525.294 -1112.42)"/><path class="t" d="M557.449,1439.559c-.351,1.2-.789,2.684-1.27,4.325-1.671-3.472-5.491-14.511-5.608-14.856C551.523,1430.612,557.309,1439.352,557.449,1439.559Z" transform="translate(-504.638 -1313.986)"/></g><g transform="translate(719.487 839.099)"><g transform="translate(7.944 210.41)"><path class="u" d="M2126.462,1692.111s-5.066,7.116-4.371,8.244,6.022,1.289,9.265,0,3.32-9.629,4.787-13.213c.614-1.5-.7-5.928-2.548-6.25a7.506,7.506,0,0,0-3.857.622S2131.654,1686.563,2126.462,1692.111Z" transform="translate(-2122.026 -1680.826)"/></g><g transform="translate(10.706 210.308)"><path class="e" d="M2135.26,1681.253a34.76,34.76,0,0,0-1.455,5.924c-.323,2.4-3.609,7.5-3.455,8.14s4.323,1.228,6.022-.433,2.791-6.493,3.165-9.384a24.081,24.081,0,0,1,.788-4.021S2136.881,1679.481,2135.26,1681.253Z" transform="translate(-2130.344 -1680.52)"/></g><g transform="translate(52.216 210.413)"><path class="u" d="M2259.607,1692.236s-4.883,7-4.188,8.126,6.022,1.289,9.264,0,3.32-9.629,4.787-13.212c.614-1.5-.7-5.928-2.548-6.25a8,8,0,0,0-4.015.691S2264.8,1686.688,2259.607,1692.236Z" transform="translate(-2255.351 -1680.837)"/></g><g transform="translate(54.981 210.15)"><path class="e" d="M2268.467,1681.061a49.579,49.579,0,0,1-1,5.64c-.617,2.336-3.937,7.654-3.783,8.3s4.324,1.228,6.022-.433,3.012-6.472,3.166-9.384a16.137,16.137,0,0,0-.386-4.811S2270.089,1679.288,2268.467,1681.061Z" transform="translate(-2263.675 -1680.043)"/></g><g transform="translate(15.316 79.928)"><path class="e" d="M2164.283,1303.27s-4.347,21.1-5.345,26.415-3.793,31.044-4.093,35.42-4.536,20.861-4.336,22.423-6.281,32.953-6.281,32.953a3.771,3.771,0,0,0,4.546.168c1.2-.87,14.219-29.388,14.219-37.2,0-10.8,7.653-24.9,8.641-27.314,9.173-22.446,7.367-29.309,8.566-30.767s1.3.9,2,4.13,2.2,31.148,3.094,34.691.2,15.522.7,21.565,2.69,33.373,2.69,33.373,1.7,2.775,4.079.072c.513-.582,4.112-30.445,4.211-37.634s.206-17.1.4-20.21c1.85-29.787,6.4-34.041-.764-55.123C2183.2,1266.76,2164.283,1303.27,2164.283,1303.27Z" transform="translate(-2144.228 -1287.886)"/></g><g transform="translate(26.506 89.412)"><path class="v" d="M2215.983,1316.449s12.385,18.086,7.053,56.559c0,0-29.374,4.169-45.11-4.822,0,0,6.507-39.667,8.865-45.84S2215.983,1316.449,2215.983,1316.449Z" transform="translate(-2177.926 -1316.448)"/></g><g transform="translate(21.27 216.1)"><path class="u" d="M2163.083,1697.963v7.45h-.927v-5.759Z" transform="translate(-2162.156 -1697.963)"/></g><g transform="translate(65.545 216.1)"><path class="u" d="M2296.415,1697.963v7.45h-.927v-5.759Z" transform="translate(-2295.488 -1697.963)"/></g><path class="e" d="M2236.14,1070.284s-8.294,8.354-5.469,19.111,7.363,10.818,12.366,6.19,7.947-9.5,8.608-14.9S2243.712,1062.832,2236.14,1070.284Z" transform="translate(-2186.258 -1061.067)"/><path class="e" d="M2243.434,1152.629a49.041,49.041,0,0,0,2.091-5.982c.152-.558.293-1.128.413-1.7a10.951,10.951,0,0,0,.14-5.3c-1.322-3.906,8.294-1.2,8.294-1.2s-1.863,10.337,0,13.823S2243.434,1152.629,2243.434,1152.629Z" transform="translate(-2195.175 -1107.533)"/><path class="w" d="M2226.582,1182.412c-1.513-3.021-2.646-3.993-5.571-4.917-1.637-.517-8.95-2.421-8.95-2.421l-8.784-.323a78.4,78.4,0,0,0-10.729,2.629c-4.688,1.623-10.83,10.5-10.83,10.5s8.474,19.893,10.1,25.6.541,14.543.541,14.543c10.157,5.53,26.443-.541,26.443-.541a32.609,32.609,0,0,1-.638-13.364c.076-.436.162-.85.257-1.24.088-.356.208-.865.348-1.434.007-.026.013-.051.018-.076,6.461.661,12.518.93,12.677-.366C2232.174,1205.173,2228.665,1186.565,2226.582,1182.412Zm-4.476,22.682c-.26-.039-.814-.042-1.4-.095.717-2,1.517-3.774,1.517-3.774C2222.683,1202.5,2224.423,1205.441,2222.106,1205.094Z" transform="translate(-2153.953 -1132.391)"/><path class="x" d="M2238.928,1075.417s3.966,7.212,6.43,9.8,2.175,4.636,2.175,4.636,9.6-11.848,2.753-19-15.686-4.266-18.27,1.983-1.638,13.885-1.638,13.885S2230.454,1079.383,2238.928,1075.417Z" transform="translate(-2186.342 -1060.19)"/><path class="x" d="M2264.278,1054.863s-.959-5.279,7.321-7.38,12,7.439,10.979,13.259-8.1,20.578-4.26,22.5,5.34-2.22,5.34-2.22-1.2,7.259-6.539,5.579-4.619-13.476-3.814-18.178S2264.278,1054.863,2264.278,1054.863Z" transform="translate(-2209.074 -1047.187)"/><path class="h" d="M2257.251,1147.988a10.107,10.107,0,0,1-7.52,5.641c.152-.558.293-1.128.413-1.7C2250.144,1151.934,2253.1,1152.53,2257.251,1147.988Z" transform="translate(-2199.381 -1114.516)"/><path class="y" d="M2299.009,1234.764s-.4.833-1.479,4.117c-1.1-9.222-.527-14.022-.527-14.022A34.651,34.651,0,0,0,2299.009,1234.764Z" transform="translate(-2230.855 -1165.86)"/><path class="w" d="M2268.23,1066.315s5.876,1.129,8.808,5.915c0,0-.595-4.334-3.52-5.583A7.5,7.5,0,0,0,2268.23,1066.315Z" transform="translate(-2211.737 -1059.746)"/><path class="y" d="M2279.493,1283.559c-.14.569-.26,1.078-.348,1.434-.1.389-.181.8-.257,1.24-3.639-1.979-6.253-3.526-6.253-3.526C2273.614,1282.926,2279.493,1283.559,2279.493,1283.559Z" transform="translate(-2214.679 -1204.499)"/><path class="e" d="M2253.775,1174.266l-10.341,8.43,1.065-8.88S2250.529,1172.514,2253.775,1174.266Z" transform="translate(-2195.175 -1131.456)"/><path class="z" d="M2246.422,1179.811l-2.988,1.431,10.156-10.068Z" transform="translate(-2195.174 -1130.002)"/><path class="g" d="M2264.76,1211.37c-1.423,5.9,3.843,19.173,3.843,19.173l-10.437,3.263a2.675,2.675,0,0,1-3.414-1.99c-1.4-6.5-4.674-22.484-5.065-31.373-.5-11.342,7.759-24.722,7.759-24.722,14.677,2.518,10.654,24.722,10.654,24.722s-.533,1.4-1.245,3.585v0c-.18.548-.369,1.148-.566,1.787C2265.785,1207.458,2265.245,1209.364,2264.76,1211.37Z" transform="translate(-2199.336 -1133.04)"/><path class="g" d="M2198.677,1175.236l.181-.485s-7.516,1.143-11.336,3.051-11.133,11.764-11.133,11.764l9.565,12.628c.011,9.7-1.563,26.958-1.563,26.958l4.373,2.52a1.783,1.783,0,0,0,2.673-1.51c.123-6.561.418-22.142.572-29.687.2-9.706,7.124-25.4,7.124-25.4C2198.979,1175.126,2198.828,1175.181,2198.677,1175.236Z" transform="translate(-2150.393 -1132.391)"/><path class="e" d="M2202.471,1297.823s7.212.281,8.334,0,8.605-3.526,9.055-6.731-17.389,2.873-17.389,2.873Z" transform="translate(-2167.814 -1209.476)"/><path class="aa" d="M2210.986,1276.186l-29.268-3.426,13.222,10.758Z" transform="translate(-2153.952 -1197.855)"/><path class="ab" d="M2220.447,1290.408l16.046-5.469v-1.863l-16.587,5.321Z" transform="translate(-2179.46 -1204.746)"/><g transform="translate(37.129 72.611)"><path class="e" d="M2221.318,1266.2a25.051,25.051,0,0,1-3.777-.276c-1.049-.214-3.657.081-4.321.669s-2.777,4.691-3.176,4.941.2.83.906.539c0,0,.645,1.795,2.235,1.123s2.669-2.139,3.5-2.4,5.681-1.562,5.681-1.562S2222.567,1265.76,2221.318,1266.2Z" transform="translate(-2209.916 -1265.852)"/></g><path class="ac" d="M2231.688,1169.817l-5.57,8.823-2.69,1.7,6.267-8.786Z" transform="translate(-2181.812 -1129.096)"/><path class="z" d="M2231.527,1178.64l3.954,1.7,1.065-8.88.552-1.638Z" transform="translate(-2187.222 -1129.096)"/><path class="g" d="M2162.169,1289.933s-.3,3.726,0,4.507c0,0-18.049-1.8-19.733-4.327a10.887,10.887,0,0,1-1.622-5.589Z" transform="translate(-2126.632 -1205.713)"/><path class="ad" d="M2139.091,1234.438l-8.534-31.732-32.453-3.426,8.894,29.208Z" transform="translate(-2098.104 -1148.775)"/><path class="ac" d="M2259.6,1171.174l-7.168,8.637,3.922,3.5,4.232-10.34Z" transform="translate(-2201.185 -1130.002)"/><path class="ae" d="M2273.63,1258.722s-.24.73-.24.731c-.18.548-.369,1.148-.566,1.787-1.385.436-13.374-.444-13.374-.444S2269.484,1258.44,2273.63,1258.722Z" transform="translate(-2205.873 -1188.463)"/><path class="g" d="M2262.655,1206.729c-1.931-.146-5.095-.352-7.683-.363-4.028-.017-10.917.432-10.917.432l.821,4.3s12.2,1.983,18.867,2.448h0s8.8,1.009,9.449-.3-.216-9.738-1.647-17.328-2.9-11.964-4.65-14.308-10.988-4.172-10.988-4.172l7.837,25.652a10.619,10.619,0,0,1,1.067,3.275c-.018.3-.226.443-.507.5-.2-.017-.631-.054-1.229-.1Z" transform="translate(-2195.59 -1134.187)"/></g><g transform="translate(633.858 839.099)"><path class="e" d="M2093.731,1347.454s1.477,3.368,2.891,2.946a12.674,12.674,0,0,1,4.172-.226c.881.1,3.747-.576,3.579.5s-4.68,1.324-5.624,1.557,2.448,2.632,2.685,3.554-4.5,6.266-6.614,4.353-2.991-5.354-3.437-5.617a26.3,26.3,0,0,1-2.388-3Z" transform="translate(-2006.391 -1247.746)"/><path class="e" d="M2112.982,1370.837s6.052,6.287,6.073,7.046-.371,1.069-.963.5-6.039-5.9-6.039-5.9,5.8,8.653,5.958,9.264c.093.359-.628,1-.977.728s-6.624-8.51-6.624-8.51,5.4,8.089,5.371,8.646a.729.729,0,0,1-1.279.352c-.444-.572-5.912-7.788-5.912-7.788s3.531,6.142,3.217,6.612c-.191.288-.789.869-1.647-.746s-3.31-5.2-3.31-5.2Z" transform="translate(-2018.317 -1263.364)"/><g transform="translate(4.306 217.84)"><path class="af" d="M1861.243,1703.2s-2.32,1.656-3.6,2.816a12.093,12.093,0,0,0-4.1,5.381c-1.083,3,.624,5.148,3.525,5.325s7.346-2.013,7.779-4.668c.429-2.629,3.836-2.319,4.28-4.19a10.23,10.23,0,0,0-.149-4.173Z" transform="translate(-1853.204 -1703.201)"/></g><g transform="translate(12.344 215.665)"><path class="ag" d="M1877.8,1696.652l-.386,2.175s1.195,2.211,7.724.491l-.337-2.143Z" transform="translate(-1877.411 -1696.652)"/></g><path class="af" d="M1885.135,1703.589s-1.471.193-2.518.358-3.122-1.174-5.206-.849l.641,2.645S1884.99,1704.444,1885.135,1703.589Z" transform="translate(-1865.067 -1485.259)"/><g transform="translate(46.013 217.406)"><path class="af" d="M1986.843,1701.894s2.32,1.656,3.605,2.816a12.1,12.1,0,0,1,4.1,5.382c1.084,3-.624,5.148-3.524,5.325s-7.346-2.013-7.779-4.668c-.429-2.63-3.836-2.32-4.28-4.191a10.233,10.233,0,0,1,.149-4.173Z" transform="translate(-1978.804 -1701.894)"/></g><g transform="translate(46.328 215.231)"><path class="ag" d="M1987.089,1695.346l.386,2.174s-1.195,2.211-7.724.491l.337-2.143Z" transform="translate(-1979.751 -1695.346)"/></g><g transform="translate(11 96.387)"><path class="ah" d="M1919.154,1406.823c0,4.779-.684,49.87-.684,49.87-.478,1.593-9.407,2.115-11,1.318s-1.315-45.51-1.609-50.329-4.167-40.274-5.564-40.114-9.295,33.557-10.41,37.221-5.506,52.968-5.506,52.968a19.989,19.989,0,0,1-11.017.228s2.083-49.934,2.085-55.863c0-2.2.65-3.865,1.273-15.565.475-8.917,2.956-27.191,4.618-39.764q.089-.671.171-1.288c.325-2.447.569-4.245.686-5.108.051-.373.078-.571.078-.571q.671-.309,1.4-.572c11.668-4.192,34.173.245,34.173.245s.013.111.038.319c.03.253.077.649.137,1.162.13,1.109.323,2.759.545,4.675,0,.014,0,.027,0,.041.006.057.014.117.02.176.785,6.818,1.174,10.564,1.791,17.841C1920.521,1365.309,1919.154,1402.043,1919.154,1406.823Z" transform="translate(-1873.364 -1337.453)"/></g><g transform="translate(0 33.98)"><path class="g" d="M1885.229,1149.714s19.109,4.057,20.7,9.368,4.686,17.782,8.989,31.347c2.574,8.115,15.653,26.6,15.653,26.6s-7.484,5.516-7.484,4.773-17.624-24.261-17.837-27.129-5.553-17.532-5.553-17.532-2.53,28.195-2.53,32.549,1.1,17.738,1.1,17.738-7.684,6.381-21.433,5.664c0,0-19.426.082-19.157-7.558.237-6.734,1.895-47.069,1.47-47.281s-8.054,9.343-7.31,11.183,20.487,8.438,20.487,8.438.577,2.126-2.49,6.943c0,0-29.491-8.617-29.6-10.423s12.267-36.87,16.307-38.706c5.817-2.642,21.228-6.168,21.228-6.168Z" transform="translate(-1840.237 -1149.515)"/></g><path class="af" d="M1979.751,1702.282s1.471.193,2.518.358,3.122-1.174,5.206-.849l-.641,2.645S1979.9,1703.137,1979.751,1702.282Z" transform="translate(-1933.423 -1484.386)"/><g transform="translate(32.97 22.418)"><path class="e" d="M1952.225,1126.909c-.092,4.667-10.808,9.58-10.808,9.58s-2.6-8.723-1.7-9.177c.355-.178.468-.288.512-1.081a16.509,16.509,0,0,0-.051-2.117c-.027-.33-.052-.543-.052-.543s1.291-1.362,2.934-2.985c2.871-2.839,6.98-7.041,6.986-5.594,0,.076.111.115.088.221C1949.437,1118.469,1952.225,1126.909,1952.225,1126.909Z" transform="translate(-1939.525 -1114.698)"/></g><g transform="translate(32.723 26.763)"><path class="h" d="M1947.713,1127.784h0c-.018.028-.4.6-1.056,1.424-1.387,1.745-4,4.612-6.928,5.764a16.463,16.463,0,0,0-.052-2.117,4.753,4.753,0,0,1-.9-.108,27.905,27.905,0,0,1,1.965-2.877l1.814-.542Z" transform="translate(-1938.78 -1127.784)"/></g><g transform="translate(26.628 7.656)"><path class="e" d="M1937.189,1085.928c-.782,1.7-1.524,2.933-1.734,3.422h0a6.033,6.033,0,0,1-1.055,1.424c-1.49,1.6-4.258,3.721-6.979,3.647a4.743,4.743,0,0,1-.9-.108,4.27,4.27,0,0,1-3.11-2.149c-5.638-11.039-1.556-20.065-1.556-20.065s15.416-4.359,17.828.282C1941.376,1075.635,1939.027,1081.931,1937.189,1085.928Z" transform="translate(-1920.427 -1070.242)"/></g><g transform="translate(26.246)"><path class="ai" d="M1921.086,1056.7s-1.432-.079-1.786-2.794c-.35-2.682,3.113-4.528,3.113-4.528a19.581,19.581,0,0,1,5.894-1.908c2.29-.319,7.906-.679,9.223.827,0,0,3.2-.744,4.073,4.57,1.383,8.43-4.714,16.614-4.714,16.614s.052-5.507-1.163-6.237-2.262,1.005-2.262,1.005l-2.485.445s3.521-6.806-1.006-7.108A71.587,71.587,0,0,1,1921.086,1056.7Z" transform="translate(-1919.275 -1047.187)"/></g><g transform="translate(40.423 12.544)"><path class="e" d="M1962.048,1087.286c.237-2.426,4.624-3.352,4.33-.809s-2.455,4.986-3.453,4.9S1961.868,1089.135,1962.048,1087.286Z" transform="translate(-1961.968 -1084.963)"/></g><g transform="translate(11 60.231)"><path class="aj" d="M1904.28,1233.361l-7.182,36.978-23.734-4.61,6.254-37.158Z" transform="translate(-1873.364 -1228.571)"/><path class="ak" d="M1905.872,1239.861l-6.379,32.841-21.079-4.094,5.555-33Z" transform="translate(-1876.738 -1233.271)"/><path class="aj" d="M1923.167,1239.093l.448-2.3-8.521-1.656-.781,2.241Z" transform="translate(-1900.715 -1232.954)"/></g><path class="al" d="M1952.464,1293.961s1.815-.05,2.371-.13.189,1.1-.456,1.324S1952.464,1293.961,1952.464,1293.961Z" transform="translate(-1915.197 -1211.926)"/><path class="e" d="M1937.858,1302.615a3.707,3.707,0,0,1-1.179.107s-.693-.209-1.195-.327a3.6,3.6,0,0,0-.391-.075,6.783,6.783,0,0,1-2.14-.36c-.9-.351-3.944-1.912-3.944-1.912l.871-2.832.656-2.244s5.148-1.37,6.023-1.139a2.284,2.284,0,0,1,.245.079,8.616,8.616,0,0,1,1.508.952c.133.068,1.408.834,1.474,1.274a1.453,1.453,0,0,1-.4,1.353,3.47,3.47,0,0,1-.316,1.883,2.157,2.157,0,0,1-.64,1.794S1938.458,1302.306,1937.858,1302.615Z" transform="translate(-1899.531 -1211.913)"/><path class="g" d="M1882.377,1227.541s-.956,5.169-3.7,8.5c0,0-20.442-8.312-23.021-9.326s9.372-32.774,9.372-32.774l8.794,2.993-4.724,8.934s-2.339,5.005-7.2,13.237C1861.89,1219.1,1864.884,1221.946,1882.377,1227.541Z" transform="translate(-1850.289 -1145.208)"/><path class="g" d="M1973.577,1211.305s-.539,9.893,4.407,9.893,4.5-8.9,4.587-9.893Z" transform="translate(-1929.288 -1156.807)"/><path class="am" d="M1976.261,1208.285h7.386v-1.5Z" transform="translate(-1931.092 -1153.787)"/></g><g transform="translate(509.965 845.126)"><g transform="translate(4.719 83.81)"><path class="e" d="M1491.728,1318.408s-2.247,1.448-3.541.638a8.566,8.566,0,0,0-3.608-.814c-.79-.041-3.167-1.069-3.228-.073s3.838,1.884,4.618,2.233-2.656,2.028-3.043,2.829,2.715,6.336,4.94,4.911,3.662-4.415,4.1-4.588a16.172,16.172,0,0,0,1.66-.973Z" transform="translate(-1481.35 -1317.726)"/></g><g transform="translate(71.777 208.803)"><path class="an" d="M1693.787,1694.295s-5.03,7.354-6.786,8.915c0,0-3.509,1.822-3.618,3.277-.205,2.751-.452,5.315,4.165,5.445s7.6-.959,8.45-3.755a16.979,16.979,0,0,1,2.861-5.2v5.852h1.04s.26-5.657.325-6.7.747-5.04-1.447-6.812A6.088,6.088,0,0,0,1693.787,1694.295Z" transform="translate(-1683.294 -1694.138)"/></g><g transform="translate(74.815 206.895)"><path class="e" d="M1692.443,1699.75a11.651,11.651,0,0,0,5.465-.043c2.969-.748,5.819-7.854,6.686-8.446l.769-2.868h-5.787a12.309,12.309,0,0,1-1.136,3.917C1697.5,1694.127,1692.443,1699.75,1692.443,1699.75Z" transform="translate(-1692.443 -1688.393)"/></g><g transform="translate(35.286 204.739)"><path class="an" d="M1587.732,1683.373a18.657,18.657,0,0,1-2.178,3.641c-1.044,1.363-4.291,6.958-5.722,7.348s-5.852,1.17-6.242,3.641-.585,4.227,3.771,4.421,7.218.455,9.3-2.6a22.656,22.656,0,0,1,5.4-5.267v7.973h1.691s.78-8.3,1.235-8.884,1.626-6.957-2.406-10.273S1587.732,1683.373,1587.732,1683.373Z" transform="translate(-1573.402 -1681.899)"/></g><g transform="translate(41.716 205.336)"><path class="e" d="M1592.766,1695.563s3.9.975,5.4,0,6.579-9.569,8.264-10.083c0,0-1.632-3.311-5.76-.905C1600.666,1684.574,1593.871,1694.133,1592.766,1695.563Z" transform="translate(-1592.766 -1683.698)"/></g><g transform="translate(67.513 84.491)"><path class="ao" d="M1687.424,1322.087s5.5,7.153,6.993,15.638-.881,36.965-.816,41.159,3.885,17.571,3.105,25.471-5.05,40.547-5.05,40.547l-9.531-.171s1.91-35.582,1.422-38.9-2.04-17.425-2.235-18.79-10.859-37.474-10.859-43.591S1674.159,1312.107,1687.424,1322.087Z" transform="translate(-1670.453 -1319.778)"/></g><g transform="translate(43.615 87.805)"><path class="ao" d="M1611.719,1331.55s-9.038,34.494-10.111,39.273-3.219,11.021-3.121,11.9,1.138,15.6,1.138,15.6l2.568,50.132h9.526s3.056-31.893,3.543-38.33-3.511-16.386-2.536-19.116,15.7-34.234,15.7-34.234S1639.58,1321.537,1611.719,1331.55Z" transform="translate(-1598.483 -1329.759)"/></g><g transform="translate(10.879 37.97)"><path class="e" d="M1548.669,1179.681s-4.812.195-7.542,3.121-4.1,7.738-4.812,9.3-9.753,16-10.274,16.321-9.7,7.736-13.866,11.7-12.273,8.388-12.273,8.388l3.056,4.292s24.643-13.134,27.764-17.946,15.93-17.881,15.93-17.881S1556.862,1185.012,1548.669,1179.681Z" transform="translate(-1499.903 -1179.681)"/></g><g transform="translate(13.058 37.97)"><path class="ap" d="M1553.051,1179.681s-4.812.195-7.543,3.121-4.1,7.738-4.812,9.3-9.753,16-10.273,16.321a115.311,115.311,0,0,0-12.208,9.459c-4.161,3.966-11.752,8.632-11.752,8.632l4.438,5.656s21.115-11.719,24.562-16.3c3.682-4.9,15.573-18.889,15.573-18.889S1561.244,1185.012,1553.051,1179.681Z" transform="translate(-1506.463 -1179.681)"/></g><g transform="translate(50.175 35.189)"><path class="w" d="M1634.018,1171.551a49,49,0,0,1-6.307,2.536c-1.626.325-7.933,8.517-9.038,11.509s0,7.477,2.276,12.744.13,7.022,1.171,12.289a122.546,122.546,0,0,1,1.756,19.344c-.2,2.926,26.3,3.478,32.346-1.854,0,0-6.078-9.1-6.858-10.4s-.13-8.387.585-10.208,8.777-15.41,8.777-15.41.592-13.784-2.926-16.515c-3.056-2.374-11.385-3.22-12.88-3.74A25.549,25.549,0,0,0,1634.018,1171.551Z" transform="translate(-1618.241 -1171.306)"/></g><g transform="translate(61.613 33.768)"><path class="z" d="M1655.528,1179.13l-2.844-3.332,2.47-8.77A57.907,57.907,0,0,1,1655.528,1179.13Z" transform="translate(-1652.684 -1167.029)"/></g><g transform="translate(0 88.849)"><path class="e" d="M1473.876,1332.9s-6.523,4.814-6.689,5.5.116,1.022.744.6,6.437-4.468,6.437-4.468-6.763,6.994-7.021,7.525c-.151.311.355,1,.713.8s7.457-6.745,7.457-6.745-6.3,6.542-6.387,7.051a.625.625,0,0,0,1.05.506c.5-.453,6.694-6.194,6.694-6.194s-4.288,5.05-4.105,5.522c.112.289.522.9,1.588-.435s3.911-4.229,3.911-4.229Z" transform="translate(-1467.14 -1332.902)"/></g><g transform="translate(55.978 1.379)"><path class="e" d="M1651.6,1070.319c-2.782-.979-13-3.381-15.41,9.688s4.812,22.368,11.444,19.9,10.728-11.509,11.118-18.4S1655.109,1071.555,1651.6,1070.319Z" transform="translate(-1635.714 -1069.491)"/></g><g transform="translate(56.447 0.31)"><path class="aq" d="M1637.132,1077.856s-.5-11.184,10.618-11.573,14.109,8.764,13.2,15.436a16.331,16.331,0,0,1-5.512,10.191s.4-5.4-1.758-6.8-10.805-4.2-14.577-10.7A9.976,9.976,0,0,0,1637.132,1077.856Z" transform="translate(-1637.129 -1066.271)"/></g><g transform="translate(69.829)"><path class="aq" d="M1677.912,1076.049c1.465,4.453,5.808,7.026,9.7,5.745s5.862-5.929,4.4-10.382-5.808-7.026-9.7-5.746S1676.448,1071.595,1677.912,1076.049Z" transform="translate(-1677.428 -1065.337)"/></g><g transform="translate(80.606 37.772)"><path class="e" d="M1711.566,1179.283s5.9-1.691,9.281,4.811,2.536,10.013,3.316,12.94,3.9,22.5,4.1,23.343,3.186,10.793,2.8,13.85-3.186,26.2-3.056,26.984-5.4-.748-5.4-.748.228-23.635.033-25.586-.391-12.192-1.853-14.825-5.072-18.726-5.852-20.384S1706.592,1181.4,1711.566,1179.283Z" transform="translate(-1709.882 -1179.085)"/></g><g transform="translate(63.718 23.623)"><path class="e" d="M1659.025,1142.886s.934,8.589.739,11.385c0,0,4.864,4.874,10.4-5.691a14.5,14.5,0,0,1-.576-10.288C1671.338,1132.358,1659.025,1142.886,1659.025,1142.886Z" transform="translate(-1659.025 -1136.478)"/></g><g transform="translate(86.749 123.084)"><path class="l" d="M1728.381,1446.286v-7.962a2.328,2.328,0,0,1,2.325-2.326h12.626a2.328,2.328,0,0,1,2.326,2.326v7.962a2.328,2.328,0,0,1-2.326,2.325h-12.626A2.328,2.328,0,0,1,1728.381,1446.286Zm2.325-8.727a.766.766,0,0,0-.765.765v7.962a.766.766,0,0,0,.765.765h12.626a.766.766,0,0,0,.765-.765v-7.962a.766.766,0,0,0-.765-.765Z" transform="translate(-1728.381 -1435.998)"/></g><g transform="translate(90.152 114.974)"><path class="e" d="M1748.35,1423.889a4.528,4.528,0,0,0,.569-1.33s.019-.884.07-1.512a4.19,4.19,0,0,1,.061-.483,8.312,8.312,0,0,0,.388-2.623,55.577,55.577,0,0,0-1.677-6.17l-2.946.1-2.772-.3s-3.349,6.391-3.41,7.495a2.793,2.793,0,0,0,0,.315,10.578,10.578,0,0,0,.538,2.112c.029.18.439,1.95.925,2.193a1.774,1.774,0,0,0,1.724.041,4.243,4.243,0,0,0,2.307.342,2.635,2.635,0,0,0,2.326-.068S1747.765,1424.47,1748.35,1423.889Z" transform="translate(-1738.629 -1411.576)"/></g><g transform="translate(64.457 41.416)"><path class="e" d="M1661.25,1190.059v4.454l5.6-4.183Z" transform="translate(-1661.25 -1190.059)"/></g><g transform="translate(64.457 35.189)"><path class="z" d="M1661.25,1181.988l2.325-2.877,7.83-7.8,2.533,2.439Z" transform="translate(-1661.25 -1171.307)"/></g><g transform="translate(68.789 35.935)"><path class="ap" d="M1681.205,1173.555s-6.571,9.972-6.885,14.361,2.442,37.22,4.649,47.773,18.153-1.19,18.153-1.19-10.716-17.344-6.6-31.232,6.428-23.109,6.428-23.109-2.8-4.469-7.25-5.154S1681.205,1173.555,1681.205,1173.555Z" transform="translate(-1674.296 -1173.555)"/></g><g transform="translate(49.614 36.973)"><path class="ap" d="M1616.549,1190.411s1.059,9.958,3.075,14.9c0,0,.845,10.533.715,14.24s-1.008,17.719-1.008,17.719l4.566,2.674a1.288,1.288,0,0,0,1.93-1.266c-1.293-10.665-5.5-51.122,3.587-62l-3.646,1.075S1618.262,1184.755,1616.549,1190.411Z" transform="translate(-1616.549 -1176.68)"/></g><g transform="translate(70.814 15.758)"><path class="e" d="M1681.459,1113.819a1.714,1.714,0,0,1,2.536-.729c.78.585,1.235,2.341,0,4.617S1678.4,1121.569,1681.459,1113.819Z" transform="translate(-1680.392 -1112.791)"/></g><g transform="translate(58.028 33.768)"><path class="ac" d="M1645.474,1175.8l-3.584.99,6.055-9.76Z" transform="translate(-1641.89 -1167.029)"/></g><g transform="translate(66.782 35.189)"><path class="ac" d="M1668.251,1179.11l3.274,4.292,6.716-11.151-2.16-.944Z" transform="translate(-1668.251 -1171.307)"/></g><g transform="translate(80.484 37.772)"><path class="ap" d="M1711.318,1179.283s5.9-1.691,9.282,4.811a29.673,29.673,0,0,1,3.817,12.452c.426,3,4.549,20.807,4.744,21.652s1.552,11.977,1.648,16.028c.073,3.08-.65,23.277-.52,24.058s-9.338-1.366-9.338-1.366,1.047-18.629.853-20.579-.611-11.674-1.564-14.533c-1.119-3.357-5.54-20.271-6.32-21.929S1706.345,1181.4,1711.318,1179.283Z" transform="translate(-1709.513 -1179.085)"/></g><g transform="translate(63.911 28.197)"><path class="h" d="M1659.6,1153.975l.172,1.691s3.855.754,8.915-5.416C1668.692,1150.25,1665.106,1154.624,1659.6,1153.975Z" transform="translate(-1659.605 -1150.25)"/></g><g transform="translate(71.702 132.279)"><rect class="ar" width="47.371" height="33.939" transform="translate(47.371 33.939) rotate(180)"/></g><g transform="translate(71.702 132.279)"><rect class="as" width="47.371" height="19.673" transform="translate(47.371 19.673) rotate(180)"/></g><path class="ao" d="M1617.266,1232.22s-1.739-6.672.68-12.9a17.4,17.4,0,0,0,.714,11.236Z" transform="translate(-1567.01 -1168.185)"/><path class="ao" d="M1720.523,1232.89s-3.128-10.868-3.32-11.455c0,0,.511,9.767,1.751,14.636A16.148,16.148,0,0,1,1720.523,1232.89Z" transform="translate(-1634.166 -1169.6)"/></g><g transform="translate(381.795 807.114)"><path class="at" d="M35.985,0H80.177a35.985,35.985,0,0,1,35.985,35.985v197.66a35.986,35.986,0,0,1-35.986,35.986H35.986A35.986,35.986,0,0,1,0,233.645V35.985A35.985,35.985,0,0,1,35.985,0Z" transform="translate(120.821 272.046) rotate(180)"/><rect class="au" width="137.248" height="274.116" rx="39.44" transform="translate(137.248 274.116) rotate(180)"/><g transform="translate(77.187 94.308)"><path class="w" d="M1313.608,1234.871l5.024,7.918,4.637,7.308c-.011-.039-.32-1.146-.844-4.35-.1-.608-.207-1.292-.322-2.058a5.34,5.34,0,0,0-.145-.674h0c-1.985-4.576-8.121-8.025-8.345-8.14Z" transform="translate(-1313.608 -1234.871)"/></g><g transform="translate(77.193 94.312)"><path class="av" d="M1321.95,1242.967h0a10.32,10.32,0,0,1,.488,2.787l-1.817-2.742s-3.245-4.652-4.356-5.862a18.407,18.407,0,0,0-2.639-2.269S1320.01,1237.948,1321.95,1242.967Z" transform="translate(-1313.626 -1234.881)"/></g><path class="aw" d="M1226.36,970.09v245.733a11.945,11.945,0,0,1-11.95,11.944h-92.261a11.949,11.949,0,0,1-11.951-11.944V970.09a11.951,11.951,0,0,1,11.951-11.95h92.261A11.947,11.947,0,0,1,1226.36,970.09Z" transform="translate(-1100.556 -955.724)"/><g transform="translate(16.448 41.134)"><path class="af" d="M1215.237,1689.365s1.923,5.317,5.144,7.569,6.549,5.472,5.671,7.724-11.638,1.059-16.138-5.479c-2.843-4.131-5.732-5.052-5.725-7.009s3.307-5.868,3.479-6.421C1207.882,1685.064,1215.237,1689.365,1215.237,1689.365Z" transform="translate(-1179.784 -1482.804)"/><path class="ag" d="M1222.937,1682.866a19.641,19.641,0,0,1-.8,1.926c-.084.011-8.308-2.193-7.568-3.617a13.094,13.094,0,0,1,1.716-2.347Z" transform="translate(-1186.688 -1478.231)"/><g transform="translate(15.376 109.254)"><path class="ax" d="M1177,1409.806s2.377-5.644,4.221-6,.329,1.116.329,1.116-2.34,3.878-3.129,5.505A9.177,9.177,0,0,1,1177,1409.806Z" transform="translate(-1176.997 -1403.754)"/></g><g transform="translate(17.551 99.421)"><path class="e" d="M1193.031,1379.557a44.905,44.905,0,0,0-.59,5.5c-.1,2.768.34,3.817-.48,5.133-.619.993-2.124,1.369-2.309.915s1.15-4.695-.592-5.291-1.319,5.37-2.217,4.625-4.1-4.333-3.1-6.355,3.129-2.984,4.145-6.173c.921-2.894,2.236-3.772,2.236-3.772Z" transform="translate(-1183.547 -1374.141)"/></g><g transform="translate(20.03 110.837)"><path class="ay" d="M1194.28,1408.666s2.1,1.409-.806,9.177l-2.462-1.364a28.562,28.562,0,0,0,1.632-6.934S1193.319,1408.063,1194.28,1408.666Z" transform="translate(-1191.012 -1408.521)"/></g><g transform="translate(2.125 111.55)"><path class="ay" d="M1164.253,1423.67l-18.327-13-8.834,25.116,15.971,19.339Z" transform="translate(-1137.092 -1410.668)"/></g><path class="af" d="M1306.773,1439.546v49.305c-5.047-15.315-16.072-48.428-18.729-53.848-2.311-4.742-23.284-32.1-24.825-30.152s-10.135,24.892-11.277,30.537-26.844,47.552-26.844,47.552-.452-.093-1.143-.279c-1.793-.531-5.22-1.766-6.96-4.064a5.439,5.439,0,0,1-.531-.823s18.888-41,20.667-48.761c.624-2.709,1.328-15.952,3.813-29.766a115.176,115.176,0,0,1,4.582-18.038c.784-2.165,3.069-3.068,6.123-3.161.518-.027,1.063-.013,1.621.013.93.053,1.912.159,2.936.305a60,60,0,0,1,7.305,1.647c2.1.611,4.2,1.288,6.15,1.979,2.271.81,4.37,1.634,6.11,2.338.571.226,1.1.452,1.594.651.545.226,1.023.438,1.435.611,1.089.478,1.727.77,1.727.77s3.307,5.884,7.411,13.362c5.645,10.281,12.8,23.537,15,28.637A96.3,96.3,0,0,1,1306.773,1439.546Z" transform="translate(-1187.983 -1277.32)"/><path class="az" d="M1282.986,1224.609l7.757,8.674v14.358c-5.552-5.273-12.087-12.007-14.518-14.146a4.34,4.34,0,0,0-.877-.664,6.77,6.77,0,0,1-1.727-2.3c-.212-.359-.452-.77-.691-1.2-.359-.651-.731-1.355-1.116-2.1-.252-.491-.518-1-.784-1.514s-.518-1.049-.784-1.567c-.518-1.05-1.036-2.1-1.5-3.082-.359-.744-.691-1.448-1-2.085-.2-.438-.4-.836-.571-1.209s-.332-.7-.465-1.01c-.332-.717-.545-1.182-.6-1.288a35.09,35.09,0,0,1-.067,6.15,29.864,29.864,0,0,1-.8,4.622,35.814,35.814,0,0,0-.823,7.159v.08c0,.066-.013.12-.013.186v.08c-.133,4.888.2,10.161.345,12.964.212,4.41-1.262,6.362-1.262,6.362s-.2-.026-.558-.08l-.956-.133-1.089-.146-1.474-.213-5.725-.8-2.085-.292-.478-.066-3.626-.518-7.319-1.023-2.922-.411-1.581-.226-3.852-.545-1.727-.252h-.027s-1.488-10.507-1.594-16.179c-.106-5.3-2.989-16.152-3.374-17.573a.406.406,0,0,1-.027-.106v-.013c0-.013,0-.013-.013-.013v-.027s-8.355,8.78-9.975,12.605c-.4.943-1.461,3.188-2.882,6.057-.026.066-.053.133-.08.186-3.852,7.8-10.175,19.977-12.618,22.833-.292.372-.545.584-.717.611a1.306,1.306,0,0,1-.239.026c-1.527.013-4.091-2.112-5.353-3.254-.464-.412-.743-.691-.743-.691s.106-.252.318-.7c1.78-4.078,10.8-24.586,13.07-29.408.212-.452.372-.77.452-.916a2.081,2.081,0,0,0,.133-.253c1.7-3.281,13.256-28.4,15.023-29.66a9.85,9.85,0,0,1,.93-.545,3.562,3.562,0,0,0,.452-.226.231.231,0,0,0,.067-.027c.292-.133.6-.279.943-.438.107-.053.226-.106.345-.159.239-.106.479-.212.731-.332,1.394-.611,3.042-1.3,4.636-1.953.451-.186.889-.359,1.3-.518.624-.252,1.235-.478,1.793-.691.08-.026.146-.053.213-.079a27,27,0,0,1,3.586-1.222h.239c.12,0,.279.013.465.027,2.311.133,9.2.77,11.423.983.451.04.7.067.7.067s1.063.492,2.656,1.209l.013.013.133.053c.93.425,2.019.93,3.175,1.461,2.417,1.116,5.154,2.391,7.319,3.414,2.072,1,5.207,2.683,5.446,2.869Z" transform="translate(-1171.953 -1148.865)"/><path class="ba" d="M1337.984,1379.145s.77.92.993,4.819c0,0-31.651-3.692-35-5.147,0,0-.131-4.3.579-4.372C1305.34,1374.364,1337.984,1379.145,1337.984,1379.145Z" transform="translate(-1246.432 -1274.923)"/><path class="e" d="M1325.12,1159.664c.1,4.967,9.716,7.684,9.716,7.684s4.023-5.043,3.062-5.526c-.377-.19-.531-.943-.578-1.787a17.555,17.555,0,0,1,.055-2.253c.028-.352.056-.577.056-.577s-1.374-1.45-3.122-3.177c-3.055-3.02-7.255-6.89-7.261-5.35a1.37,1.37,0,0,0,.036.292C1327.821,1152.433,1325.12,1159.664,1325.12,1159.664Z" transform="translate(-1260.558 -1123.892)"/><path class="bb" d="M1323.068,1376.376s-.691,4.356-.751,5.492l-1.464-.292s.4-4.609.64-5.382Z" transform="translate(-1257.708 -1276.092)"/><path class="af" d="M1395.481,1386.651s.555,3.96.568,5.455l-1.549-.2s-.318-4.945-.494-5.461Z" transform="translate(-1306.569 -1282.938)"/><path class="h" d="M1336.274,1160.548h0c.019.029.427.639,1.123,1.515,1.476,1.857,4.252,4.908,7.372,6.133a17.6,17.6,0,0,1,.055-2.253,5,5,0,0,0,.955-.115,29.637,29.637,0,0,0-2.091-3.062l-1.931-.577Z" transform="translate(-1268.008 -1132.054)"/><path class="e" d="M1324.127,1116c.832,1.809,1.622,3.121,1.846,3.641h0a6.435,6.435,0,0,0,1.123,1.515c1.585,1.708,4.531,3.959,7.427,3.881a5.023,5.023,0,0,0,.955-.115,4.542,4.542,0,0,0,3.31-2.287c6-11.748,1.656-21.353,1.656-21.353s-16.406-4.64-18.973.3C1319.672,1105.051,1322.172,1111.751,1324.127,1116Z" transform="translate(-1257.707 -1091.152)"/><path class="bc" d="M1335.5,1084.875s1.523-.084,1.9-2.973c.372-2.854-.38-3.645-.38-3.645s-6.773-2.835-9.206-3.2-8.413-.723-9.815.88c0,0-3.406-.791-4.334,4.863-1.472,8.97,5.016,17.681,5.016,17.681s-.055-5.86,1.237-6.637,2.408,1.071,2.408,1.071l2.643.473s-4.015-8.67.8-8.991S1332.745,1085.378,1335.5,1084.875Z" transform="translate(-1252.763 -1074.74)"/><path class="e" d="M1330.671,1117.45c-.252-2.582-4.921-3.567-4.608-.861s2.612,5.307,3.674,5.214S1330.863,1119.418,1330.671,1117.45Z" transform="translate(-1261.178 -1101.616)"/><path class="f" d="M1215.1,1229.528c-1.833,3.731-13.281,28.68-15.288,29.05s-7.354-4.253-7.354-4.253,12.774-28.159,13.847-30.052,13.33-28.613,15.149-29.917a76.826,76.826,0,0,1,9.41-4.194c.7-.276,1.375-.539,2-.776.811.9,13.843,15.631,12.619,28.687-.367,3.923-.861,10.321-1.947,17.057-1.124,7-2.937,14.911-4.11,20.882a109.486,109.486,0,0,1-6.8,21.094l-12.2-6.108a4.248,4.248,0,0,1-2.1-5.227c2.745-7.687,8.228-23.217,8.231-29.963,0,0-.433-15.231-1.483-18.862C1225.076,1216.947,1217.2,1225.249,1215.1,1229.528Z" transform="translate(-1171.949 -1151.316)"/><path class="f" d="M1410.516,1237.719v15.142c-5.432-5.3-12.074-12.406-14.518-14.637a4.351,4.351,0,0,0-.877-.664,6.769,6.769,0,0,1-1.727-2.3c-.225-.359-.452-.77-.691-1.2-.359-.651-.731-1.355-1.116-2.1-.253-.491-.518-1-.784-1.514s-.518-1.049-.784-1.567c-.518-1.05-1.036-2.1-1.5-3.082-.359-.744-.7-1.448-1-2.085-.2-.438-.4-.836-.571-1.209s-.332-.7-.465-1.01c-.332-.717-.545-1.182-.6-1.288a15.007,15.007,0,0,1-.067,6.15c-.651,3.706-1.939,7.611-1.62,11.781v.08c1.01,12.658,6.335,30.576,7.916,35.651a2.246,2.246,0,0,1-.438,2.125,1.249,1.249,0,0,1-.213.252l-3.8,3.507s-3.294-10.148-4.994-17.307c-.039-.2-.093-.4-.132-.584a38.689,38.689,0,0,1-.784-4.264v-.013c-.305-2.842-.917-6.163-1.581-9.7s-1.328-7.292-1.74-11c-1.063-9.4-2.152-18.729-2.935-24.2-.252-1.78-.5-3.427-.744-4.941a129.977,129.977,0,0,0-2.975-14.89l.08-.067c.93.425,2.019.93,3.175,1.461,2.417,1.116,5.154,2.391,7.319,3.414,2.072,1,5.207,2.683,5.446,2.869l14.956,28.8Z" transform="translate(-1291.726 -1153.594)"/><path class="bd" d="M1312.79,1201.714l4.679,2.639-2,2.039,5.323,28.738c1.085-6.736,1.579-13.133,1.947-17.057,1.224-13.056-11.808-27.785-12.619-28.687-.626.237-1.3.5-2,.776Z" transform="translate(-1249.202 -1151.316)"/><path class="bd" d="M1371.583,1192.607s1.748,5.71,3.786,19.961c.781,5.475,1.878,14.792,2.931,24.2l1.089-26.915-2.229-2.415,1.981-2.477-4.24-10.826c-1.158-.535-2.248-1.036-3.17-1.459Z" transform="translate(-1291.592 -1153.468)"/><path class="f" d="M1258.719,1191.723c-3.821,1.506-9.511,3.465-10.562,4.22-1.82,1.3-12.924,28-14,29.891Z" transform="translate(-1199.802 -1152.877)"/><path class="ay" d="M1148.789,1454.149l-2.72-.433-15.376-19.256,9.225-25.25,1.734.485Z" transform="translate(-1130.693 -1298.144)"/><path class="be" d="M1313.438,1184.821l3.879-2.356s.109,2.127,9.716,7.684l-2.729,7.685Z" transform="translate(-1252.755 -1146.693)"/><path class="be" d="M1356.935,1185.692s-.151,2.3-2.556,6.613l5.325,6.942.388-11.258Z" transform="translate(-1280.101 -1148.849)"/><path class="bf" d="M1352.845,1205.606s-1.032,4.128-.661,5.284a5.038,5.038,0,0,0,3.9-.207A18.144,18.144,0,0,0,1352.845,1205.606Z" transform="translate(-1278.581 -1162.15)"/><g transform="translate(79.108 90.978)"><path class="bg" d="M1369.414,1360.727c.578-2.913.028-11.64,0-12.01l-.494.031c.006.09.57,9.032,0,11.882Z" transform="translate(-1368.924 -1348.717)"/></g><path class="bh" d="M1358.025,1380.838s4.657.556,6.2.94l-.2,5.22-6.1-.651Z" transform="translate(-1282.467 -1279.193)"/><path class="bf" d="M1354.324,1218.614a105.015,105.015,0,0,1,5.163,27.594c.578,14.695-.976,18.492-.976,18.492l-5.737,5.163-1.92-6.711a87.347,87.347,0,0,0,2.405-35.21c-.5-3.422-1.249-9.906-1.249-9.906Z" transform="translate(-1277.747 -1170.452)"/></g><rect class="bi" width="125.6" height="269.637" rx="36" transform="translate(9.637 2.408)"/><g transform="translate(85.423 41.817)"><g transform="translate(54.967 96.938)"><path class="e" d="M1509.281,1368.722s1.866,2.718,2.844,2.809a20.56,20.56,0,0,1,3.208,1.211c.855.249,3.454.1,4.213.674.311.234,1.628,2.418,2.312,2.823s2.175,1.057,1.792,1.639-1.887.362-1.887.362a.991.991,0,0,1,.421,1.017c-.347,1.187-1.113,1.339-1.113,1.339s.331.814.061,1.275a2.178,2.178,0,0,1-1.339,1.141,2,2,0,0,1-.548,1.252,1.825,1.825,0,0,1-1.685.5s-.662,1.139-1.39,1.031a6.17,6.17,0,0,1-1.726-.811,22.77,22.77,0,0,1-6.137-7.313,16.81,16.81,0,0,0-4.369-5.635Z" transform="translate(-1503.938 -1368.722)"/></g><g transform="translate(62.874 103.317)"><path class="bj" d="M1537.426,1390.635s-3.414-2.95-4.939-2.686-.356,1.4-.356,1.4-1.138-1.14-2.162-.322.419,2.071.419,2.071a1.3,1.3,0,0,0-1.8.534c-.7,1.166.738,1.932.738,1.932s-2.06-.027-1.463,1.542c1.008,2.649,4.216,3.526,4.216,3.526s.793.137,1.39-1.031a1.806,1.806,0,0,0,2.232-1.756s2.157-.769,1.278-2.416A1.573,1.573,0,0,0,1537.426,1390.635Z" transform="translate(-1527.752 -1387.932)"/></g><path class="af" d="M1507.3,1737.93s4.649,3.736,8.786,4,8.9,1.338,9.345,3.849-12.566,5.7-17.545,3.914c-7.432-2.663-7.935-1.408-9-3.176s-.239-7.1-.387-7.694C1498.317,1738.088,1507.3,1737.93,1507.3,1737.93Z" transform="translate(-1445.227 -1518.391)"/><path class="ag" d="M1506.853,1731.832a18.354,18.354,0,0,1,.787,2.025c-.07.056-8.8,2.584-8.8.891,0-1.373.071-2.876.071-2.876Z" transform="translate(-1445.564 -1514.318)"/><path class="af" d="M1402.172,1496.484c.106.518-.479.85-1.408,1.049-2.232.5-6.5.306-8.395.186-.584-.04-.943-.067-.943-.067s-17.8-54.512-21.279-61.6c-2.311-4.742-23.285-32.1-24.825-30.151a86.978,86.978,0,0,1-5.406-21.412c-.213-1.567-.385-3.2-.531-4.888a61.706,61.706,0,0,1,6.23,1.461c2.1.611,4.2,1.288,6.149,1.979,2.271.811,4.37,1.634,6.11,2.338.571.226,1.1.452,1.594.651.545.226,1.023.438,1.435.611,1.089.478,1.727.77,1.727.77s3.307,5.884,7.411,13.362c5.645,10.281,12.8,23.537,15,28.637,3.52,8.169,7.133,22.846,7.611,28.584C1393.259,1465.217,1401.747,1494.372,1402.172,1496.484Z" transform="translate(-1339.061 -1279.048)"/><path class="az" d="M1402.117,1249.838s-.16.186-.425.5c-.916,1.076-3.135,3.626-4.542,4.968a1.224,1.224,0,0,0-.133.12c-.159.146-.478.08-.943-.159-4.025-2.085-18.463-17.334-22.368-20.761-.266-.226-.491-.412-.651-.531a.214.214,0,0,0-.093-.053.489.489,0,0,0-.133-.08,6.767,6.767,0,0,1-1.727-2.3c-.212-.359-.452-.77-.691-1.2-.173-.332-.359-.664-.544-1.01s-.372-.717-.572-1.089c-.252-.491-.518-1-.784-1.514-.916-1.806-1.846-3.706-2.643-5.38-.186-.412-.385-.81-.558-1.2-.306-.638-.571-1.209-.81-1.714-.106-.226-.2-.438-.292-.638-.067-.159-.133-.292-.2-.425a2.806,2.806,0,0,0-.159-.345c-.12-.266-.2-.452-.239-.531a.013.013,0,0,0-.014-.014,35.089,35.089,0,0,1-.067,6.15v.013a29.723,29.723,0,0,1-.8,4.609,35.808,35.808,0,0,0-.823,7.159v.08c0,.066-.013.12-.013.186v.08c-.133,4.888.2,10.161.345,12.964.212,4.409-1.262,6.362-1.262,6.362s-.2-.026-.558-.08c-.239-.04-.571-.08-.956-.133l-1.089-.146-1.474-.213-5.725-.8-2.085-.292-.478-.066-3.626-.518-6.27-.877v-.093c-.106-1.275-.186-2.59-.239-3.932v-.013c-.079-1.966-.093-4-.04-6.083a141.849,141.849,0,0,1,1.222-14.5c.85-6.4,1.846-12.3,2.191-18.861a87.3,87.3,0,0,0,.013-8.966v-.013c-.106-1.912-.266-3.918-.518-6.017-.026-.212-.053-.425-.093-.638-.186-1.488-.412-3.028-.691-4.622,2.231.2,4.423.4,5.5.5h.013c.438.04.691.066.691.066s1.063.492,2.656,1.209l.013.013.133.053c.93.425,2.019.93,3.175,1.461,2.417,1.116,5.154,2.391,7.319,3.414,2.072,1,5.207,2.683,5.446,2.869l14.956,28.8,21.133,23.63Z" transform="translate(-1338.408 -1150.564)"/><path class="ba" d="M1362.6,1386.953s-.585-.066-1.594-.186c-.425-.053-.93-.12-1.5-.186-.465-.053-1-.12-1.554-.186-1.78-.226-3.958-.492-6.336-.8-1.953-.239-4.025-.5-6.11-.8-1.9-.252-3.8-.5-5.619-.77-.213-1.567-.385-3.2-.531-4.888a.444.444,0,0,0-.014-.133v-.093c2.019.292,4.157.584,6.27.89,1.235.186,2.457.359,3.64.531.159.027.319.04.478.067.7.106,1.408.2,2.072.305,2.152.306,4.131.6,5.725.823.531.08,1.023.146,1.474.213.412.066.77.119,1.089.159v.013c.385.053.717.093.956.133.359.053.558.08.558.08S1362.376,1383.048,1362.6,1386.953Z" transform="translate(-1339.033 -1278.593)"/><path class="e" d="M1344.232,1170.41h-.014l-.013-.013a20.974,20.974,0,0,1-2.338-.823c-.026-.212-.053-.425-.093-.638-.186-1.488-.412-3.028-.691-4.622-.213-1.235-.452-2.5-.73-3.8-.213-1.023-.411-2.019-.558-2.989v-.013c-.173-.186-.319-.372-.452-.545.133.146.279.292.425.438q-.139-.8-.239-1.554v-.013c-.146-1.01-.252-1.979-.345-2.922,1.381,1.142,3.082,2.75,4.516,4.171,1.753,1.727,3.122,3.188,3.122,3.188s-.027.226-.053.571a19.768,19.768,0,0,0-.053,2.258,5.552,5.552,0,0,0,.066.691c.08.531.239.956.5,1.089C1348.257,1165.376,1344.232,1170.41,1344.232,1170.41Z" transform="translate(-1338.927 -1127.64)"/><path class="af" d="M1395.481,1386.651s.555,3.96.568,5.455l-1.549-.2s-.318-4.945-.494-5.461Z" transform="translate(-1375.544 -1283.621)"/><path class="h" d="M1347.089,1166.751a19.764,19.764,0,0,0-.053,2.258c-2.829-1.116-5.366-3.719-6.92-5.579v-.013c-.173-.186-.319-.372-.452-.545.133.146.279.292.425.439q-.14-.8-.239-1.554l4.171,1.235,1.939.584a29.422,29.422,0,0,1,2.085,3.055A4.738,4.738,0,0,1,1347.089,1166.751Z" transform="translate(-1339.247 -1133.545)"/><path class="e" d="M1350.582,1122.7a4.525,4.525,0,0,1-3.307,2.285,4.739,4.739,0,0,1-.956.119c-2.657.066-5.353-1.82-7-3.44q-.14-.8-.239-1.554v-.013c-.146-1.01-.252-1.979-.345-2.922a47.438,47.438,0,0,1-.2-6.017c.013-.8.053-1.567.12-2.3.053-.783.133-1.541.252-2.258a29.467,29.467,0,0,1,1.886-7.2,58.949,58.949,0,0,1,11.449,1.952S1356.585,1110.953,1350.582,1122.7Z" transform="translate(-1338.476 -1091.893)"/><path class="bc" d="M1354.431,1083.279c-.371,2.882-1.9,2.975-1.9,2.975-2.763.491-4.915-.81-9.736-.491s-.8,8.992-.8,8.992l-2.643-.465-.013-.013a2.906,2.906,0,0,0-.4-.518c.053-.783.133-1.541.252-2.258a29.467,29.467,0,0,1,1.886-7.2c2.138-5.234,5.06-7.332,5.3-7.505h.014c2.975.877,7.651,2.829,7.651,2.829S1354.8,1080.423,1354.431,1083.279Z" transform="translate(-1338.766 -1076.797)"/><path class="e" d="M1339.1,1123.853a3.116,3.116,0,0,1-.518,1.78c.013-.8.053-1.567.12-2.3.053-.783.133-1.541.252-2.258a1.7,1.7,0,0,1,.093.452A13.708,13.708,0,0,1,1339.1,1123.853Z" transform="translate(-1338.526 -1106.373)"/><path class="f" d="M1342.97,1257.375c-.372,3.932-.864,10.321-1.939,17.068-.691,4.29-1.647,8.913-2.551,13.243-.079-1.966-.093-4-.04-6.083a141.855,141.855,0,0,1,1.222-14.5c.85-6.4,1.846-12.3,2.191-18.861A24.006,24.006,0,0,1,1342.97,1257.375Z" transform="translate(-1338.408 -1191.308)"/><path class="f" d="M1384.58,1238.308c-.508-6.562,2.621-12.64,1.318-18.115l.006.012c.279.607,7.653,16.781,9.225,17.358,1.6.589,21.579,22.981,23.256,21.416,1.788-1.67,5.875-6.427,5.875-6.427l-21.5-23.207-14.951-28.8c-.242-.192-3.376-1.877-5.45-2.865-2.159-1.028-4.893-2.3-7.317-3.416-1.158-.535-2.248-1.036-3.17-1.459l-.075.059s1.676,5.583,3.714,19.834c.781,5.475,1.877,14.792,2.931,24.2v0c.832,7.413,2.728,15.021,3.331,20.7.624,5.879,5.91,22.162,5.91,22.162l3.8-3.508a2.3,2.3,0,0,0,.638-2.376C1390.549,1268.8,1385.559,1250.954,1384.58,1238.308Z" transform="translate(-1360.712 -1154.285)"/><path class="bd" d="M1345.492,1257.375c-.372,3.932-.864,10.321-1.939,17.068l-1.368-7.345c.85-6.4,1.846-12.3,2.191-18.861A24.006,24.006,0,0,1,1345.492,1257.375Z" transform="translate(-1340.931 -1191.308)"/><path class="bd" d="M1371.583,1192.607s1.748,5.71,3.786,19.961c.781,5.475,1.878,14.792,2.931,24.2l1.089-26.915-2.229-2.415,1.981-2.477-4.24-10.826c-1.158-.535-2.248-1.036-3.17-1.459Z" transform="translate(-1360.567 -1154.151)"/><path class="be" d="M1349.442,1202.631v.013l-.04.08v.04l-1.806,5.047c-.106-1.912-.266-3.918-.518-6.017-.026-.212-.053-.425-.093-.637.731.465,1.541.943,2.431,1.461l.013.013Z" transform="translate(-1344.136 -1159.861)"/><path class="be" d="M1356.935,1185.692s-.151,2.3-2.556,6.613l5.325,6.942.388-11.258Z" transform="translate(-1349.076 -1149.532)"/><path class="bf" d="M1352.845,1205.606s-1.032,4.128-.661,5.284a5.038,5.038,0,0,0,3.9-.207A18.144,18.144,0,0,0,1352.845,1205.606Z" transform="translate(-1347.556 -1162.833)"/><g transform="translate(10.133 90.295)"><path class="bg" d="M1369.414,1360.727c.578-2.913.028-11.64,0-12.01l-.494.031c.006.09.57,9.032,0,11.882Z" transform="translate(-1368.924 -1348.717)"/></g><path class="bh" d="M1358.025,1380.838s4.657.556,6.2.94l-.2,5.22-6.1-.651Z" transform="translate(-1351.442 -1279.876)"/><path class="bf" d="M1354.324,1218.614a105.015,105.015,0,0,1,5.163,27.594c.578,14.695-.976,18.492-.976,18.492l-5.737,5.163-1.92-6.711a87.347,87.347,0,0,0,2.405-35.21c-.5-3.422-1.249-9.906-1.249-9.906Z" transform="translate(-1346.722 -1171.135)"/></g></g></g></svg>