<svg xmlns="http://www.w3.org/2000/svg" width="31.695" height="43.758" viewBox="0 0 31.695 43.758"><defs><style>.a{fill:#004fd0;}</style></defs><g transform="translate(1 -11)"><g transform="translate(-1 11)"><path class="a" d="M86.42,0A15.865,15.865,0,0,0,70.573,15.847c0,10.844,14.182,26.765,14.786,27.437a1.427,1.427,0,0,0,2.123,0c.6-.672,14.786-16.593,14.786-27.437A15.866,15.866,0,0,0,86.42,0Zm0,40.145c-4.773-5.67-12.994-16.855-12.994-24.3a12.994,12.994,0,1,1,25.987,0C99.414,23.29,91.195,34.474,86.42,40.145Z" transform="translate(-70.573)"/></g><g transform="translate(6.874 18.874)"><path class="a" d="M170.681,92.134a7.973,7.973,0,1,0,7.973,7.973A7.982,7.982,0,0,0,170.681,92.134Zm0,13.093a5.119,5.119,0,1,1,5.119-5.119A5.125,5.125,0,0,1,170.681,105.227Z" transform="translate(-162.708 -92.134)"/></g></g></svg>