<svg xmlns="http://www.w3.org/2000/svg" width="96.997" height="96.997" viewBox="0 0 96.997 96.997"><defs><style>.a{fill:#fff;}</style></defs><path class="a" d="M97,40.676H93.481l-5.24,2.757a7.778,7.778,0,0,0-1.865-.767l-6.591-1.649v-.749a10.986,10.986,0,0,0,4.695-8.978V28.555A11.24,11.24,0,0,0,73.866,17.214c-.3-.008-.59,0-.884.018l1.709-4L66.406,4.948,61.523,8.127A26.463,26.463,0,0,0,55.667,5.7L54.461,0H42.538L41.331,5.7a26.432,26.432,0,0,0-5.856,2.429L30.592,4.95l-8.278,8.278,1.68,4c-.064,0-.125-.015-.189-.016A10.956,10.956,0,0,0,12.516,28.16v3.129a10.982,10.982,0,0,0,4.693,8.977v.751l-4.3,1.075L5.117,37.547H0V69.965l15.391,5.13h3l.374-1.311,4.718,2.832a4.871,4.871,0,0,0,4.7,4.719,4.871,4.871,0,0,0,4.693,4.693,4.87,4.87,0,0,0,4.693,4.693,4.866,4.866,0,0,0,7.608,3.863l1.386,1.224A4.763,4.763,0,0,0,49.706,97H50a4.763,4.763,0,0,0,4.755-4.7A4.759,4.759,0,0,0,59.443,87.6a4.759,4.759,0,0,0,4.693-4.7,4.811,4.811,0,0,0,4.7-4.8,4.58,4.58,0,0,0-.024-.469L97,63.546ZM81.352,28.555v2.735a7.853,7.853,0,0,1-3.916,6.77l-.782.452.006,4.951,7.816,1.953-17.2,9.055V50.255A7.784,7.784,0,0,0,65.031,44.8L70.4,43.462V38.507l-.781-.451a7.844,7.844,0,0,1-3.913-6.767V28.16a7.822,7.822,0,0,1,8.064-7.818,8.089,8.089,0,0,1,7.58,8.212ZM50.857,53.24l-7.082-2.263A19.32,19.32,0,0,0,33.75,50.52l-.9.2v-.463A4.69,4.69,0,0,1,36.408,45.7l8.961-2.239V38.507l-.781-.451a7.844,7.844,0,0,1-3.913-6.767V28.16a7.822,7.822,0,0,1,8.064-7.818,8.089,8.089,0,0,1,7.58,8.212v2.735a7.853,7.853,0,0,1-3.916,6.77l-.782.452.006,4.951,8.96,2.239a4.69,4.69,0,0,1,3.554,4.554v5.862l-.387.2H62.8l-9.618-2.749a9.862,9.862,0,0,0-2.322-.332ZM33.2,23.415a17.2,17.2,0,0,1,30.524-.126,10.88,10.88,0,0,0-1.15,4.871v3.129a10.982,10.982,0,0,0,4.693,8.977v.751l-6.258,1.567-6.259-1.567v-.749a10.986,10.986,0,0,0,4.695-8.978V28.554A11.24,11.24,0,0,0,48.834,17.213,10.953,10.953,0,0,0,37.547,28.16v3.129a10.982,10.982,0,0,0,4.693,8.977v.751l-6.258,1.567-6.259-1.567v-.749a10.986,10.986,0,0,0,4.695-8.978V28.554a11.531,11.531,0,0,0-1.214-5.14Zm-7.2-9.462,5-5,4.4,2.863.842-.516a23.346,23.346,0,0,1,6.774-2.81l.963-.231,1.089-5.133h6.851L53.01,8.26l.963.23a23.368,23.368,0,0,1,6.774,2.81l.842.516,4.4-2.863,4.992,4.994L69.205,18.1a10.935,10.935,0,0,0-3.3,2.2c-.064.063-.119.13-.182.194a20.317,20.317,0,0,0-34.505.094,11.035,11.035,0,0,0-3.451-2.447ZM20.338,43.462V38.507l-.781-.451a7.844,7.844,0,0,1-3.913-6.767V28.16a7.822,7.822,0,0,1,8.064-7.818,8.089,8.089,0,0,1,7.58,8.212v2.735a7.853,7.853,0,0,1-3.916,6.77l-.782.452.006,4.951L31.965,44.8a7.784,7.784,0,0,0-2.241,5.452v1.159L24.845,52.5l.127-.443.06-2.891L16.78,44.351ZM3.129,40.676H4.269l11.251,6.563L9.843,69.947,3.129,67.708ZM15.9,71.965l-3.079-1.026L18.334,48.88,21.9,50.961v.447L16.029,71.965Zm10.7,4.5a1.766,1.766,0,0,1,.513-1.241l2.75-2.75A1.754,1.754,0,0,1,32.34,74.96l-2.75,2.75A1.754,1.754,0,0,1,26.6,76.469Zm4.693,4.693a1.766,1.766,0,0,1,.513-1.241l2.75-2.75a1.754,1.754,0,0,1,2.481,2.481l-2.75,2.75a1.754,1.754,0,0,1-2.994-1.241Zm4.693,4.693a1.766,1.766,0,0,1,.513-1.241l2.75-2.75a1.754,1.754,0,0,1,2.481,2.481l-2.75,2.75a1.754,1.754,0,0,1-2.994-1.241ZM42.43,92.3a1.754,1.754,0,0,1-1.241-2.994l2.75-2.75A1.754,1.754,0,0,1,46.42,89.04l-2.75,2.75A1.766,1.766,0,0,1,42.43,92.3ZM50,93.868h-.29a1.621,1.621,0,0,1-1.078-.409l-1.17-1.032,1.175-1.175a4.864,4.864,0,0,0,.985-1.454l1.422,1.184A1.632,1.632,0,0,1,50,93.868Zm14.03-14.08h-.27a1.679,1.679,0,0,1-1.076-.391l-8.484-7.07-2,2.4L60.429,81.6a1.633,1.633,0,0,1-1.047,2.885h-.341A1.632,1.632,0,0,1,58,84.1l-8.5-7.081-2,2.4,8.239,6.865a1.63,1.63,0,0,1-1.045,2.883,2.584,2.584,0,0,1-1.646-.6l-3.492-2.91a4.867,4.867,0,0,0-4.2-2.734,4.871,4.871,0,0,0-4.693-4.693,4.871,4.871,0,0,0-4.693-4.693,4.871,4.871,0,0,0-8.317-3.281l-2.75,2.75a4.822,4.822,0,0,0-.438.535l-4.806-2.884,4.213-14.745,10.562-2.348a16.117,16.117,0,0,1,8.394.38l2.3.737L37.312,58.6a5.215,5.215,0,0,0-2.894,4.687V63.6a5.239,5.239,0,0,0,7.937,4.493L48.18,64.6a3.229,3.229,0,0,1,3.752.361l13.219,11.9a1.684,1.684,0,0,1-1.125,2.935ZM93.868,61.612,67.511,74.791c-.086-.091-.175-.177-.269-.261l-13.216-11.9a6.3,6.3,0,0,0-7.456-.721l-5.828,3.495A2.11,2.11,0,0,1,37.547,63.6v-.309A2.1,2.1,0,0,1,38.714,61.4l8.727-4.363a6.8,6.8,0,0,1,4.876-.452l9.831,2.808,2.381.06L93.868,44.008Zm0,0" transform="translate(0)"/></svg>