<svg xmlns="http://www.w3.org/2000/svg" xmlns:xlink="http://www.w3.org/1999/xlink" width="376" height="437" viewBox="0 0 376 437"><defs><style>.a{fill:none;}.b{opacity:0.1;clip-path:url(#a);}.c{fill:#5e57a7;}</style><clipPath id="a"><rect class="a" width="376" height="437"/></clipPath></defs><g class="b"><g transform="translate(-110 -2870)"><circle class="c" cx="6.5" cy="6.5" r="6.5" transform="translate(110 2870)"/></g><g transform="translate(-76 -2870)"><circle class="c" cx="6.5" cy="6.5" r="6.5" transform="translate(110 2870)"/></g><g transform="translate(-42 -2870)"><circle class="c" cx="6.5" cy="6.5" r="6.5" transform="translate(110 2870)"/></g><g transform="translate(-8 -2870)"><circle class="c" cx="6.5" cy="6.5" r="6.5" transform="translate(110 2870)"/></g><g transform="translate(26 -2870)"><circle class="c" cx="6.5" cy="6.5" r="6.5" transform="translate(110 2870)"/></g><g transform="translate(60 -2870)"><circle class="c" cx="6.5" cy="6.5" r="6.5" transform="translate(110 2870)"/></g><g transform="translate(94 -2870)"><circle class="c" cx="6.5" cy="6.5" r="6.5" transform="translate(110 2870)"/></g><g transform="translate(128 -2870)"><circle class="c" cx="6.5" cy="6.5" r="6.5" transform="translate(110 2870)"/></g><g transform="translate(162 -2870)"><circle class="c" cx="6.5" cy="6.5" r="6.5" transform="translate(110 2870)"/></g><g transform="translate(196 -2870)"><circle class="c" cx="6.5" cy="6.5" r="6.5" transform="translate(110 2870)"/></g><g transform="translate(230 -2870)"><circle class="c" cx="6.5" cy="6.5" r="6.5" transform="translate(110 2870)"/></g><g transform="translate(264 -2870)"><circle class="c" cx="6.5" cy="6.5" r="6.5" transform="translate(110 2870)"/></g><g transform="translate(-110 -2837)"><circle class="c" cx="6.5" cy="6.5" r="6.5" transform="translate(110 2870)"/></g><g transform="translate(-76 -2837)"><circle class="c" cx="6.5" cy="6.5" r="6.5" transform="translate(110 2870)"/></g><g transform="translate(-42 -2837)"><circle class="c" cx="6.5" cy="6.5" r="6.5" transform="translate(110 2870)"/></g><g transform="translate(-8 -2837)"><circle class="c" cx="6.5" cy="6.5" r="6.5" transform="translate(110 2870)"/></g><g transform="translate(26 -2837)"><circle class="c" cx="6.5" cy="6.5" r="6.5" transform="translate(110 2870)"/></g><g transform="translate(60 -2837)"><circle class="c" cx="6.5" cy="6.5" r="6.5" transform="translate(110 2870)"/></g><g transform="translate(94 -2837)"><circle class="c" cx="6.5" cy="6.5" r="6.5" transform="translate(110 2870)"/></g><g transform="translate(128 -2837)"><circle class="c" cx="6.5" cy="6.5" r="6.5" transform="translate(110 2870)"/></g><g transform="translate(162 -2837)"><circle class="c" cx="6.5" cy="6.5" r="6.5" transform="translate(110 2870)"/></g><g transform="translate(196 -2837)"><circle class="c" cx="6.5" cy="6.5" r="6.5" transform="translate(110 2870)"/></g><g transform="translate(230 -2837)"><circle class="c" cx="6.5" cy="6.5" r="6.5" transform="translate(110 2870)"/></g><g transform="translate(264 -2837)"><circle class="c" cx="6.5" cy="6.5" r="6.5" transform="translate(110 2870)"/></g><g transform="translate(-110 -2804)"><circle class="c" cx="6.5" cy="6.5" r="6.5" transform="translate(110 2870)"/></g><g transform="translate(-76 -2804)"><circle class="c" cx="6.5" cy="6.5" r="6.5" transform="translate(110 2870)"/></g><g transform="translate(-42 -2804)"><circle class="c" cx="6.5" cy="6.5" r="6.5" transform="translate(110 2870)"/></g><g transform="translate(-8 -2804)"><circle class="c" cx="6.5" cy="6.5" r="6.5" transform="translate(110 2870)"/></g><g transform="translate(26 -2804)"><circle class="c" cx="6.5" cy="6.5" r="6.5" transform="translate(110 2870)"/></g><g transform="translate(60 -2804)"><circle class="c" cx="6.5" cy="6.5" r="6.5" transform="translate(110 2870)"/></g><g transform="translate(94 -2804)"><circle class="c" cx="6.5" cy="6.5" r="6.5" transform="translate(110 2870)"/></g><g transform="translate(128 -2804)"><circle class="c" cx="6.5" cy="6.5" r="6.5" transform="translate(110 2870)"/></g><g transform="translate(162 -2804)"><circle class="c" cx="6.5" cy="6.5" r="6.5" transform="translate(110 2870)"/></g><g transform="translate(196 -2804)"><circle class="c" cx="6.5" cy="6.5" r="6.5" transform="translate(110 2870)"/></g><g transform="translate(230 -2804)"><circle class="c" cx="6.5" cy="6.5" r="6.5" transform="translate(110 2870)"/></g><g transform="translate(264 -2804)"><circle class="c" cx="6.5" cy="6.5" r="6.5" transform="translate(110 2870)"/></g><g transform="translate(-110 -2771)"><circle class="c" cx="6.5" cy="6.5" r="6.5" transform="translate(110 2870)"/></g><g transform="translate(-76 -2771)"><circle class="c" cx="6.5" cy="6.5" r="6.5" transform="translate(110 2870)"/></g><g transform="translate(-42 -2771)"><circle class="c" cx="6.5" cy="6.5" r="6.5" transform="translate(110 2870)"/></g><g transform="translate(-8 -2771)"><circle class="c" cx="6.5" cy="6.5" r="6.5" transform="translate(110 2870)"/></g><g transform="translate(26 -2771)"><circle class="c" cx="6.5" cy="6.5" r="6.5" transform="translate(110 2870)"/></g><g transform="translate(60 -2771)"><circle class="c" cx="6.5" cy="6.5" r="6.5" transform="translate(110 2870)"/></g><g transform="translate(94 -2771)"><circle class="c" cx="6.5" cy="6.5" r="6.5" transform="translate(110 2870)"/></g><g transform="translate(128 -2771)"><circle class="c" cx="6.5" cy="6.5" r="6.5" transform="translate(110 2870)"/></g><g transform="translate(162 -2771)"><circle class="c" cx="6.5" cy="6.5" r="6.5" transform="translate(110 2870)"/></g><g transform="translate(196 -2771)"><circle class="c" cx="6.5" cy="6.5" r="6.5" transform="translate(110 2870)"/></g><g transform="translate(230 -2771)"><circle class="c" cx="6.5" cy="6.5" r="6.5" transform="translate(110 2870)"/></g><g transform="translate(264 -2771)"><circle class="c" cx="6.5" cy="6.5" r="6.5" transform="translate(110 2870)"/></g><g transform="translate(-110 -2738)"><circle class="c" cx="6.5" cy="6.5" r="6.5" transform="translate(110 2870)"/></g><g transform="translate(-76 -2738)"><circle class="c" cx="6.5" cy="6.5" r="6.5" transform="translate(110 2870)"/></g><g transform="translate(-42 -2738)"><circle class="c" cx="6.5" cy="6.5" r="6.5" transform="translate(110 2870)"/></g><g transform="translate(-8 -2738)"><circle class="c" cx="6.5" cy="6.5" r="6.5" transform="translate(110 2870)"/></g><g transform="translate(26 -2738)"><circle class="c" cx="6.5" cy="6.5" r="6.5" transform="translate(110 2870)"/></g><g transform="translate(60 -2738)"><circle class="c" cx="6.5" cy="6.5" r="6.5" transform="translate(110 2870)"/></g><g transform="translate(94 -2738)"><circle class="c" cx="6.5" cy="6.5" r="6.5" transform="translate(110 2870)"/></g><g transform="translate(128 -2738)"><circle class="c" cx="6.5" cy="6.5" r="6.5" transform="translate(110 2870)"/></g><g transform="translate(162 -2738)"><circle class="c" cx="6.5" cy="6.5" r="6.5" transform="translate(110 2870)"/></g><g transform="translate(196 -2738)"><circle class="c" cx="6.5" cy="6.5" r="6.5" transform="translate(110 2870)"/></g><g transform="translate(230 -2738)"><circle class="c" cx="6.5" cy="6.5" r="6.5" transform="translate(110 2870)"/></g><g transform="translate(264 -2738)"><circle class="c" cx="6.5" cy="6.5" r="6.5" transform="translate(110 2870)"/></g><g transform="translate(-110 -2705)"><circle class="c" cx="6.5" cy="6.5" r="6.5" transform="translate(110 2870)"/></g><g transform="translate(-76 -2705)"><circle class="c" cx="6.5" cy="6.5" r="6.5" transform="translate(110 2870)"/></g><g transform="translate(-42 -2705)"><circle class="c" cx="6.5" cy="6.5" r="6.5" transform="translate(110 2870)"/></g><g transform="translate(-8 -2705)"><circle class="c" cx="6.5" cy="6.5" r="6.5" transform="translate(110 2870)"/></g><g transform="translate(26 -2705)"><circle class="c" cx="6.5" cy="6.5" r="6.5" transform="translate(110 2870)"/></g><g transform="translate(60 -2705)"><circle class="c" cx="6.5" cy="6.5" r="6.5" transform="translate(110 2870)"/></g><g transform="translate(94 -2705)"><circle class="c" cx="6.5" cy="6.5" r="6.5" transform="translate(110 2870)"/></g><g transform="translate(128 -2705)"><circle class="c" cx="6.5" cy="6.5" r="6.5" transform="translate(110 2870)"/></g><g transform="translate(162 -2705)"><circle class="c" cx="6.5" cy="6.5" r="6.5" transform="translate(110 2870)"/></g><g transform="translate(196 -2705)"><circle class="c" cx="6.5" cy="6.5" r="6.5" transform="translate(110 2870)"/></g><g transform="translate(230 -2705)"><circle class="c" cx="6.5" cy="6.5" r="6.5" transform="translate(110 2870)"/></g><g transform="translate(264 -2705)"><circle class="c" cx="6.5" cy="6.5" r="6.5" transform="translate(110 2870)"/></g><g transform="translate(-110 -2672)"><circle class="c" cx="6.5" cy="6.5" r="6.5" transform="translate(110 2870)"/></g><g transform="translate(-76 -2672)"><circle class="c" cx="6.5" cy="6.5" r="6.5" transform="translate(110 2870)"/></g><g transform="translate(-42 -2672)"><circle class="c" cx="6.5" cy="6.5" r="6.5" transform="translate(110 2870)"/></g><g transform="translate(-8 -2672)"><circle class="c" cx="6.5" cy="6.5" r="6.5" transform="translate(110 2870)"/></g><g transform="translate(26 -2672)"><circle class="c" cx="6.5" cy="6.5" r="6.5" transform="translate(110 2870)"/></g><g transform="translate(60 -2672)"><circle class="c" cx="6.5" cy="6.5" r="6.5" transform="translate(110 2870)"/></g><g transform="translate(94 -2672)"><circle class="c" cx="6.5" cy="6.5" r="6.5" transform="translate(110 2870)"/></g><g transform="translate(128 -2672)"><circle class="c" cx="6.5" cy="6.5" r="6.5" transform="translate(110 2870)"/></g><g transform="translate(162 -2672)"><circle class="c" cx="6.5" cy="6.5" r="6.5" transform="translate(110 2870)"/></g><g transform="translate(196 -2672)"><circle class="c" cx="6.5" cy="6.5" r="6.5" transform="translate(110 2870)"/></g><g transform="translate(230 -2672)"><circle class="c" cx="6.5" cy="6.5" r="6.5" transform="translate(110 2870)"/></g><g transform="translate(264 -2672)"><circle class="c" cx="6.5" cy="6.5" r="6.5" transform="translate(110 2870)"/></g><g transform="translate(-110 -2639)"><circle class="c" cx="6.5" cy="6.5" r="6.5" transform="translate(110 2870)"/></g><g transform="translate(-76 -2639)"><circle class="c" cx="6.5" cy="6.5" r="6.5" transform="translate(110 2870)"/></g><g transform="translate(-42 -2639)"><circle class="c" cx="6.5" cy="6.5" r="6.5" transform="translate(110 2870)"/></g><g transform="translate(-8 -2639)"><circle class="c" cx="6.5" cy="6.5" r="6.5" transform="translate(110 2870)"/></g><g transform="translate(26 -2639)"><circle class="c" cx="6.5" cy="6.5" r="6.5" transform="translate(110 2870)"/></g><g transform="translate(60 -2639)"><circle class="c" cx="6.5" cy="6.5" r="6.5" transform="translate(110 2870)"/></g><g transform="translate(94 -2639)"><circle class="c" cx="6.5" cy="6.5" r="6.5" transform="translate(110 2870)"/></g><g transform="translate(128 -2639)"><circle class="c" cx="6.5" cy="6.5" r="6.5" transform="translate(110 2870)"/></g><g transform="translate(162 -2639)"><circle class="c" cx="6.5" cy="6.5" r="6.5" transform="translate(110 2870)"/></g><g transform="translate(196 -2639)"><circle class="c" cx="6.5" cy="6.5" r="6.5" transform="translate(110 2870)"/></g><g transform="translate(230 -2639)"><circle class="c" cx="6.5" cy="6.5" r="6.5" transform="translate(110 2870)"/></g><g transform="translate(264 -2639)"><circle class="c" cx="6.5" cy="6.5" r="6.5" transform="translate(110 2870)"/></g><g transform="translate(-110 -2606)"><circle class="c" cx="6.5" cy="6.5" r="6.5" transform="translate(110 2870)"/></g><g transform="translate(-76 -2606)"><circle class="c" cx="6.5" cy="6.5" r="6.5" transform="translate(110 2870)"/></g><g transform="translate(-42 -2606)"><circle class="c" cx="6.5" cy="6.5" r="6.5" transform="translate(110 2870)"/></g><g transform="translate(-8 -2606)"><circle class="c" cx="6.5" cy="6.5" r="6.5" transform="translate(110 2870)"/></g><g transform="translate(26 -2606)"><circle class="c" cx="6.5" cy="6.5" r="6.5" transform="translate(110 2870)"/></g><g transform="translate(60 -2606)"><circle class="c" cx="6.5" cy="6.5" r="6.5" transform="translate(110 2870)"/></g><g transform="translate(94 -2606)"><circle class="c" cx="6.5" cy="6.5" r="6.5" transform="translate(110 2870)"/></g><g transform="translate(128 -2606)"><circle class="c" cx="6.5" cy="6.5" r="6.5" transform="translate(110 2870)"/></g><g transform="translate(162 -2606)"><circle class="c" cx="6.5" cy="6.5" r="6.5" transform="translate(110 2870)"/></g><g transform="translate(196 -2606)"><circle class="c" cx="6.5" cy="6.5" r="6.5" transform="translate(110 2870)"/></g><g transform="translate(230 -2606)"><circle class="c" cx="6.5" cy="6.5" r="6.5" transform="translate(110 2870)"/></g><g transform="translate(264 -2606)"><circle class="c" cx="6.5" cy="6.5" r="6.5" transform="translate(110 2870)"/></g><g transform="translate(-110 -2573)"><circle class="c" cx="6.5" cy="6.5" r="6.5" transform="translate(110 2870)"/></g><g transform="translate(-76 -2573)"><circle class="c" cx="6.5" cy="6.5" r="6.5" transform="translate(110 2870)"/></g><g transform="translate(-42 -2573)"><circle class="c" cx="6.5" cy="6.5" r="6.5" transform="translate(110 2870)"/></g><g transform="translate(-8 -2573)"><circle class="c" cx="6.5" cy="6.5" r="6.5" transform="translate(110 2870)"/></g><g transform="translate(26 -2573)"><circle class="c" cx="6.5" cy="6.5" r="6.5" transform="translate(110 2870)"/></g><g transform="translate(60 -2573)"><circle class="c" cx="6.5" cy="6.5" r="6.5" transform="translate(110 2870)"/></g><g transform="translate(94 -2573)"><circle class="c" cx="6.5" cy="6.5" r="6.5" transform="translate(110 2870)"/></g><g transform="translate(128 -2573)"><circle class="c" cx="6.5" cy="6.5" r="6.5" transform="translate(110 2870)"/></g><g transform="translate(162 -2573)"><circle class="c" cx="6.5" cy="6.5" r="6.5" transform="translate(110 2870)"/></g><g transform="translate(196 -2573)"><circle class="c" cx="6.5" cy="6.5" r="6.5" transform="translate(110 2870)"/></g><g transform="translate(230 -2573)"><circle class="c" cx="6.5" cy="6.5" r="6.5" transform="translate(110 2870)"/></g><g transform="translate(264 -2573)"><circle class="c" cx="6.5" cy="6.5" r="6.5" transform="translate(110 2870)"/></g><g transform="translate(-110 -2540)"><circle class="c" cx="6.5" cy="6.5" r="6.5" transform="translate(110 2870)"/></g><g transform="translate(-76 -2540)"><circle class="c" cx="6.5" cy="6.5" r="6.5" transform="translate(110 2870)"/></g><g transform="translate(-42 -2540)"><circle class="c" cx="6.5" cy="6.5" r="6.5" transform="translate(110 2870)"/></g><g transform="translate(-8 -2540)"><circle class="c" cx="6.5" cy="6.5" r="6.5" transform="translate(110 2870)"/></g><g transform="translate(26 -2540)"><circle class="c" cx="6.5" cy="6.5" r="6.5" transform="translate(110 2870)"/></g><g transform="translate(60 -2540)"><circle class="c" cx="6.5" cy="6.5" r="6.5" transform="translate(110 2870)"/></g><g transform="translate(94 -2540)"><circle class="c" cx="6.5" cy="6.5" r="6.5" transform="translate(110 2870)"/></g><g transform="translate(128 -2540)"><circle class="c" cx="6.5" cy="6.5" r="6.5" transform="translate(110 2870)"/></g><g transform="translate(162 -2540)"><circle class="c" cx="6.5" cy="6.5" r="6.5" transform="translate(110 2870)"/></g><g transform="translate(196 -2540)"><circle class="c" cx="6.5" cy="6.5" r="6.5" transform="translate(110 2870)"/></g><g transform="translate(230 -2540)"><circle class="c" cx="6.5" cy="6.5" r="6.5" transform="translate(110 2870)"/></g><g transform="translate(264 -2540)"><circle class="c" cx="6.5" cy="6.5" r="6.5" transform="translate(110 2870)"/></g><g transform="translate(-110 -2507)"><circle class="c" cx="6.5" cy="6.5" r="6.5" transform="translate(110 2870)"/></g><g transform="translate(-76 -2507)"><circle class="c" cx="6.5" cy="6.5" r="6.5" transform="translate(110 2870)"/></g><g transform="translate(-42 -2507)"><circle class="c" cx="6.5" cy="6.5" r="6.5" transform="translate(110 2870)"/></g><g transform="translate(-8 -2507)"><circle class="c" cx="6.5" cy="6.5" r="6.5" transform="translate(110 2870)"/></g><g transform="translate(26 -2507)"><circle class="c" cx="6.5" cy="6.5" r="6.5" transform="translate(110 2870)"/></g><g transform="translate(60 -2507)"><circle class="c" cx="6.5" cy="6.5" r="6.5" transform="translate(110 2870)"/></g><g transform="translate(94 -2507)"><circle class="c" cx="6.5" cy="6.5" r="6.5" transform="translate(110 2870)"/></g><g transform="translate(128 -2507)"><circle class="c" cx="6.5" cy="6.5" r="6.5" transform="translate(110 2870)"/></g><g transform="translate(162 -2507)"><circle class="c" cx="6.5" cy="6.5" r="6.5" transform="translate(110 2870)"/></g><g transform="translate(196 -2507)"><circle class="c" cx="6.5" cy="6.5" r="6.5" transform="translate(110 2870)"/></g><g transform="translate(230 -2507)"><circle class="c" cx="6.5" cy="6.5" r="6.5" transform="translate(110 2870)"/></g><g transform="translate(264 -2507)"><circle class="c" cx="6.5" cy="6.5" r="6.5" transform="translate(110 2870)"/></g><g transform="translate(-110 -2474)"><circle class="c" cx="6.5" cy="6.5" r="6.5" transform="translate(110 2870)"/></g><g transform="translate(-76 -2474)"><circle class="c" cx="6.5" cy="6.5" r="6.5" transform="translate(110 2870)"/></g><g transform="translate(-42 -2474)"><circle class="c" cx="6.5" cy="6.5" r="6.5" transform="translate(110 2870)"/></g><g transform="translate(-8 -2474)"><circle class="c" cx="6.5" cy="6.5" r="6.5" transform="translate(110 2870)"/></g><g transform="translate(26 -2474)"><circle class="c" cx="6.5" cy="6.5" r="6.5" transform="translate(110 2870)"/></g><g transform="translate(60 -2474)"><circle class="c" cx="6.5" cy="6.5" r="6.5" transform="translate(110 2870)"/></g><g transform="translate(94 -2474)"><circle class="c" cx="6.5" cy="6.5" r="6.5" transform="translate(110 2870)"/></g><g transform="translate(128 -2474)"><circle class="c" cx="6.5" cy="6.5" r="6.5" transform="translate(110 2870)"/></g><g transform="translate(162 -2474)"><circle class="c" cx="6.5" cy="6.5" r="6.5" transform="translate(110 2870)"/></g><g transform="translate(196 -2474)"><circle class="c" cx="6.5" cy="6.5" r="6.5" transform="translate(110 2870)"/></g><g transform="translate(230 -2474)"><circle class="c" cx="6.5" cy="6.5" r="6.5" transform="translate(110 2870)"/></g><g transform="translate(264 -2474)"><circle class="c" cx="6.5" cy="6.5" r="6.5" transform="translate(110 2870)"/></g><g transform="translate(-110 -2441)"><circle class="c" cx="6.5" cy="6.5" r="6.5" transform="translate(110 2870)"/></g><g transform="translate(-76 -2441)"><circle class="c" cx="6.5" cy="6.5" r="6.5" transform="translate(110 2870)"/></g><g transform="translate(-42 -2441)"><circle class="c" cx="6.5" cy="6.5" r="6.5" transform="translate(110 2870)"/></g><g transform="translate(-8 -2441)"><circle class="c" cx="6.5" cy="6.5" r="6.5" transform="translate(110 2870)"/></g><g transform="translate(26 -2441)"><circle class="c" cx="6.5" cy="6.5" r="6.5" transform="translate(110 2870)"/></g><g transform="translate(60 -2441)"><circle class="c" cx="6.5" cy="6.5" r="6.5" transform="translate(110 2870)"/></g><g transform="translate(94 -2441)"><circle class="c" cx="6.5" cy="6.5" r="6.5" transform="translate(110 2870)"/></g><g transform="translate(128 -2441)"><circle class="c" cx="6.5" cy="6.5" r="6.5" transform="translate(110 2870)"/></g><g transform="translate(162 -2441)"><circle class="c" cx="6.5" cy="6.5" r="6.5" transform="translate(110 2870)"/></g><g transform="translate(196 -2441)"><circle class="c" cx="6.5" cy="6.5" r="6.5" transform="translate(110 2870)"/></g><g transform="translate(230 -2441)"><circle class="c" cx="6.5" cy="6.5" r="6.5" transform="translate(110 2870)"/></g><g transform="translate(264 -2441)"><circle class="c" cx="6.5" cy="6.5" r="6.5" transform="translate(110 2870)"/></g></g></svg>