<svg xmlns="http://www.w3.org/2000/svg" width="232.263" height="115.188" viewBox="0 0 232.263 115.188"><defs><style>.a{fill:#004fd0;}</style></defs><g transform="translate(-20.001 -20.001)"><path class="a" d="M236.026,41.474q-.54-.437-1.092-.852L173.885,101.67q.417.551.853,1.092Z"/><path class="a" d="M221.113,33.636c-.507-.15-1.016-.288-1.526-.419L166.481,86.323c.131.511.269,1.02.419,1.526Z"/><path class="a" d="M231.588,38.328q-.6-.375-1.219-.725l-59.5,59.5q.353.615.726,1.22Z"/><path class="a" d="M226.638,35.694q-.675-.3-1.358-.586L168.372,92.016q.281.684.586,1.358Z"/><path class="a" d="M214.888,32.278c-.577-.083-1.155-.152-1.734-.211L165.33,79.89c.06.579.129,1.157.211,1.734Z"/><path class="a" d="M239.509,44.6c-.163-.163-.328-.321-.493-.48l-61.63,61.63c.16.164.318.33.48.492s.328.321.493.48l61.63-61.63C239.829,44.931,239.671,44.765,239.509,44.6Z"/><path class="a" d="M207.734,31.848q-1.02.021-2.037.092L165.2,72.433q-.07,1.017-.093,2.037Z"/><path class="a" d="M166.165,65.833,199.1,32.9q-1.317.3-2.618.674l-29.64,29.64Q166.46,64.514,166.165,65.833Z"/><path class="a" d="M252.172,78.415q.069-1.019.092-2.037L209.641,119q1.02-.022,2.037-.092Z"/><path class="a" d="M252.045,70.958c-.06-.579-.129-1.157-.211-1.734L202.488,118.57c.576.083,1.154.152,1.734.211Z"/><path class="a" d="M186.549,37.865a43.91,43.91,0,0,0-15.42,15.42Z"/><path class="a" d="M250.537,87.633q.378-1.3.673-2.618l-32.931,32.932q1.317-.3,2.618-.674Z"/><path class="a" d="M230.826,112.983a43.91,43.91,0,0,0,15.42-15.42Z"/><path class="a" d="M246.509,53.742q-.353-.614-.725-1.219l-60,60q.6.374,1.219.725Z"/><path class="a" d="M243.49,49.178q-.417-.552-.852-1.093l-61.289,61.289q.54.437,1.092.852Z"/><path class="a" d="M250.894,64.524c-.131-.51-.269-1.019-.419-1.525l-54.212,54.213c.506.15,1.015.287,1.525.419Z"/><path class="a" d="M249,58.831q-.282-.683-.587-1.357l-57.68,57.679c.45.2.9.4,1.358.587Z"/><circle class="a" cx="2.824" cy="2.824" r="2.824" transform="translate(20.001 20.001)"/><circle class="a" cx="2.824" cy="2.824" r="2.824" transform="translate(56.835 20.001)"/><circle class="a" cx="2.824" cy="2.824" r="2.824" transform="translate(93.669 20.001)"/><circle class="a" cx="2.824" cy="2.824" r="2.824" transform="translate(130.502 20.001)"/><circle class="a" cx="2.824" cy="2.824" r="2.824" transform="translate(20.001 56.514)"/><circle class="a" cx="2.824" cy="2.824" r="2.824" transform="translate(56.835 56.514)"/><circle class="a" cx="2.824" cy="2.824" r="2.824" transform="translate(93.669 56.514)"/><circle class="a" cx="2.824" cy="2.824" r="2.824" transform="translate(130.502 56.514)"/><path class="a" d="M25.649,95.851a2.824,2.824,0,1,1-2.824-2.824A2.824,2.824,0,0,1,25.649,95.851Z"/><path class="a" d="M62.483,95.851a2.824,2.824,0,1,1-2.824-2.824A2.824,2.824,0,0,1,62.483,95.851Z"/><path class="a" d="M99.317,95.851a2.824,2.824,0,1,1-2.824-2.824A2.824,2.824,0,0,1,99.317,95.851Z"/><path class="a" d="M136.15,95.851a2.824,2.824,0,1,1-2.824-2.824A2.824,2.824,0,0,1,136.15,95.851Z"/><path class="a" d="M25.649,132.365a2.824,2.824,0,1,1-2.824-2.825A2.824,2.824,0,0,1,25.649,132.365Z"/><path class="a" d="M62.483,132.365a2.824,2.824,0,1,1-2.824-2.825A2.824,2.824,0,0,1,62.483,132.365Z"/><path class="a" d="M99.317,132.365a2.824,2.824,0,1,1-2.824-2.825A2.825,2.825,0,0,1,99.317,132.365Z"/><path class="a" d="M136.15,132.365a2.824,2.824,0,1,1-2.824-2.825A2.824,2.824,0,0,1,136.15,132.365Z"/></g></svg>