<svg width="856" height="341" viewBox="0 0 856 341" fill="none" xmlns="http://www.w3.org/2000/svg">
<ellipse cx="11.2312" cy="10" rx="11.2312" ry="10" fill="#004FD0"/>
<ellipse cx="152.744" cy="10" rx="11.2312" ry="10" fill="#004FD0"/>
<ellipse cx="294.256" cy="10" rx="11.2312" ry="10" fill="#004FD0"/>
<ellipse cx="435.769" cy="10" rx="11.2312" ry="10" fill="#004FD0"/>
<ellipse cx="435.769" cy="117" rx="11.2312" ry="10" fill="#004FD0"/>
<ellipse cx="294.256" cy="117" rx="11.2312" ry="10" fill="#004FD0"/>
<ellipse cx="152.744" cy="117" rx="11.2312" ry="10" fill="#004FD0"/>
<ellipse cx="11.2312" cy="117" rx="11.2312" ry="10" fill="#004FD0"/>
<ellipse cx="11.2312" cy="224" rx="11.2312" ry="10" fill="#004FD0"/>
<ellipse cx="152.744" cy="224" rx="11.2312" ry="10" fill="#004FD0"/>
<ellipse cx="294.256" cy="224" rx="11.2312" ry="10" fill="#004FD0"/>
<ellipse cx="435.769" cy="224" rx="11.2312" ry="10" fill="#004FD0"/>
<ellipse cx="435.769" cy="331" rx="11.2312" ry="10" fill="#004FD0"/>
<ellipse cx="294.256" cy="331" rx="11.2312" ry="10" fill="#004FD0"/>
<ellipse cx="152.744" cy="331" rx="11.2312" ry="10" fill="#004FD0"/>
<ellipse cx="11.2312" cy="331" rx="11.2312" ry="10" fill="#004FD0"/>
<path d="M652.72 46.8782C650.983 47.5664 649.26 48.281 647.551 49.0353L579.26 111.433C578.435 112.994 577.653 114.569 576.901 116.157C576.148 117.745 575.554 119.056 574.917 120.538L657.512 45.1049C655.905 45.6475 654.298 46.2562 652.72 46.8782Z" fill="#004FD0"/>
<path d="M682.109 38.5144C680.908 38.7262 679.721 38.9511 678.533 39.2026L568.504 139.78C568.243 140.838 567.997 141.91 567.765 142.996C567.534 144.028 567.316 145.073 567.128 146.119L685.555 37.9321C684.397 38.1042 683.253 38.3027 682.109 38.5144Z" fill="#004FD0"/>
<path d="M704.999 36.0794C704 36.0794 703.001 36.1456 702.016 36.1985L565.217 161.258C565.217 162.158 565.116 163.071 565.087 163.905C565.058 164.739 565 165.692 565 166.591L707.894 36C706.881 36 705.969 36 704.999 36.0794Z" fill="#004FD0"/>
<path d="M724.63 36.5955L722.024 36.3838L565.42 179.547C565.492 180.341 565.565 181.135 565.651 181.916C565.738 182.697 565.825 183.465 565.927 184.232L727.149 36.847L724.63 36.5955Z" fill="#004FD0"/>
<path d="M742.105 39.1232L739.774 38.6468L567.896 195.772C568.055 196.473 568.229 197.175 568.402 197.889C568.576 198.604 568.735 199.213 568.923 199.954L744.392 39.5996L742.105 39.1232Z" fill="#004FD0"/>
<path d="M757.885 43.186L755.743 42.5243L572.152 210.369C572.384 211.017 572.615 211.692 572.861 212.314C573.107 212.936 573.339 213.638 573.6 214.22L759.97 43.8609C759.323 43.6227 758.628 43.3977 757.885 43.186Z" fill="#004FD0"/>
<path d="M772.261 48.5192L770.336 47.6855L577.784 223.695L578.667 225.442L579.579 227.176L774.173 49.3397L772.261 48.5192Z" fill="#004FD0"/>
<path d="M785.451 54.9508L783.612 53.9848L584.675 235.897C585.023 236.44 585.37 236.982 585.732 237.512C586.094 238.041 586.427 238.57 586.789 239.086L787.202 55.9169L785.451 54.9508Z" fill="#004FD0"/>
<path d="M797.554 62.375C797.018 62.0045 796.454 61.6339 795.903 61.2766L592.652 247.08C593.058 247.582 593.449 248.085 593.854 248.575C594.259 249.065 594.65 249.541 595.056 250.018L799.19 63.4867L797.554 62.375Z" fill="#004FD0"/>
<path d="M808.615 70.7388L807.167 69.5213L601.672 257.323C602.106 257.786 602.555 258.236 603.004 258.646L604.35 259.969L810.077 71.9828L808.615 70.7388Z" fill="#004FD0"/>
<path d="M818.691 80.0157L817.33 78.6923L611.676 266.666L613.124 267.896L614.571 269.114L820.023 81.3788L818.691 80.0157Z" fill="#004FD0"/>
<path d="M827.783 90.2587C827.378 89.7558 826.972 89.2529 826.553 88.7633L622.664 275.082C623.2 275.466 623.75 275.837 624.3 276.207L625.907 277.279L828.956 91.688L827.783 90.2587Z" fill="#004FD0"/>
<path d="M835.818 101.322C835.471 100.78 835.123 100.237 834.761 99.6944L634.695 282.586C635.274 282.917 635.868 283.234 636.461 283.552C637.055 283.87 637.634 284.2 638.228 284.505L836.861 102.937C836.528 102.394 836.166 101.852 835.818 101.322Z" fill="#004FD0"/>
<path d="M842.782 113.444C842.492 112.849 842.188 112.267 841.884 111.684L647.884 289.11L649.781 289.918L651.706 290.712L843.665 115.218C843.376 114.622 843.086 114.08 842.782 113.444Z" fill="#004FD0"/>
<path d="M848.53 126.678C848.298 126.043 848.052 125.355 847.806 124.773L662.101 294.51L664.201 295.171L666.314 295.807L849.224 128.637C849.007 127.988 848.761 127.313 848.53 126.678Z" fill="#004FD0"/>
<path d="M852.858 141.196C852.699 140.494 852.54 139.78 852.366 139.092L677.766 298.665C678.533 298.837 679.315 298.983 680.083 299.128C680.85 299.274 681.617 299.419 682.399 299.565L853.336 143.326C853.191 142.612 853.104 141.871 852.858 141.196Z" fill="#004FD0"/>
<path d="M855.493 157.288C855.406 156.494 855.334 155.7 855.247 154.919L695.096 301.312L697.687 301.537L700.264 301.722L855.696 159.657C855.638 158.863 855.566 158.082 855.493 157.288Z" fill="#004FD0"/>
<path d="M714.568 302L717.464 301.894L720.359 301.735L855.595 178.145C855.595 177.231 855.725 176.318 855.768 175.418C855.812 174.519 855.855 173.605 855.884 172.772L714.568 302Z" fill="#004FD0"/>
<path d="M737.182 299.816C738.355 299.618 739.528 299.406 740.686 299.181C741.902 298.943 743.104 298.705 744.305 298.44L852.106 199.914C852.395 198.816 852.656 197.704 852.916 196.593C853.177 195.481 853.394 194.449 853.611 193.377L737.182 299.816Z" fill="#004FD0"/>
<path d="M765.862 292.088C767.527 291.453 769.192 290.764 770.828 290.116C772.464 289.468 774.448 288.568 776.228 287.747L840.393 229.108C841.305 227.467 842.174 225.826 842.999 224.145C843.824 222.465 844.447 221.128 845.156 219.593L765.862 292.088Z" fill="#004FD0"/>
</svg>
