<svg width="309" height="402" viewBox="0 0 309 402" fill="none" xmlns="http://www.w3.org/2000/svg">
<path d="M272.073 361.717C272.073 384.235 285.982 401.5 308.5 401.5V361.717V321.5C285.982 321.5 272.073 339.199 272.073 361.717Z" fill="#004FD0"/>
<path d="M40.7661 194.633C41.6661 195.365 42.5861 196.075 43.5091 196.773L196.773 43.509C196.075 42.5857 195.362 41.6713 194.633 40.766L40.7661 194.633Z" fill="#004FD0"/>
<path d="M78.2061 214.31C79.4771 214.686 80.754 215.032 82.036 215.362L215.361 82.039C215.031 80.758 214.686 79.481 214.309 78.209L78.2061 214.31Z" fill="#004FD0"/>
<path d="M51.907 202.531C52.919 203.158 53.9397 203.765 54.969 204.352L204.352 54.969C203.763 53.9417 203.156 52.921 202.531 51.907L51.907 202.531Z" fill="#004FD0"/>
<path d="M64.3379 209.143C65.4712 209.653 66.6079 210.144 67.7479 210.616L210.616 67.745C210.145 66.6017 209.654 65.465 209.143 64.335L64.3379 209.143Z" fill="#004FD0"/>
<path d="M93.8359 217.722C95.2839 217.929 96.736 218.101 98.189 218.251L218.251 98.189C218.102 96.734 217.928 95.284 217.722 93.836L93.8359 217.722Z" fill="#004FD0"/>
<path d="M32.0221 186.777C32.4311 187.186 32.8451 187.577 33.2581 187.982L187.983 33.258C187.583 32.845 187.183 32.431 186.778 32.022C186.373 31.613 185.955 31.222 185.542 30.817L30.8171 185.541C31.2171 185.954 31.6151 186.37 32.0221 186.777Z" fill="#004FD0"/>
<path d="M111.795 218.799C113.5 218.762 115.205 218.685 116.909 218.568L218.569 116.909C218.686 115.206 218.763 113.502 218.8 111.795L111.795 218.799Z" fill="#004FD0"/>
<path d="M216.155 133.479L133.479 216.155C135.684 215.66 137.875 215.097 140.052 214.464L214.464 140.052C215.097 137.875 215.66 135.684 216.155 133.479Z" fill="#004FD0"/>
<path d="M0.231018 101.893C0.115685 103.596 0.0386667 105.3 0 107.005L107.005 0C105.3 0.038 103.596 0.114995 101.893 0.230995L0.231018 101.893Z" fill="#004FD0"/>
<path d="M0.551025 120.613C0.699025 122.066 0.872017 123.518 1.08002 124.966L124.966 1.076C123.518 0.868996 122.066 0.694997 120.613 0.546997L0.551025 120.613Z" fill="#004FD0"/>
<path d="M164.982 203.694C172.932 198.996 180.257 193.312 186.782 186.778C193.316 180.253 199 172.928 203.698 164.978L164.982 203.694Z" fill="#004FD0"/>
<path d="M4.33698 78.748C3.70431 80.926 3.14066 83.1173 2.646 85.322L85.322 2.646C83.1173 3.14066 80.926 3.70399 78.748 4.33599L4.33698 78.748Z" fill="#004FD0"/>
<path d="M53.8199 15.106C45.8697 19.8035 38.5451 25.4868 32.02 32.021C25.4858 38.5461 19.8024 45.8708 15.105 53.821L53.8199 15.106Z" fill="#004FD0"/>
<path d="M14.4429 163.833C15.0335 164.86 15.6405 165.881 16.2639 166.895L166.894 16.269C165.882 15.643 164.861 15.036 163.832 14.448L14.4429 163.833Z" fill="#004FD0"/>
<path d="M22.0291 175.293C22.7251 176.215 23.4377 177.129 24.1671 178.036L178.036 24.167C177.131 23.4337 176.217 22.721 175.293 22.029L22.0291 175.293Z" fill="#004FD0"/>
<path d="M3.43799 136.763C3.76799 138.044 4.11497 139.323 4.49097 140.593L140.591 4.49301C139.321 4.11701 138.043 3.77001 136.761 3.44101L3.43799 136.763Z" fill="#004FD0"/>
<path d="M8.18506 151.056C8.65173 152.199 9.14275 153.335 9.65808 154.464L154.465 9.658C153.336 9.148 152.2 8.657 151.057 8.185L8.18506 151.056Z" fill="#004FD0"/>
<path d="M217.749 304.179H196.773V307.531H217.749V304.179Z" fill="#004FD0"/>
<path d="M299.52 254.122H286.19V275.926H299.52V254.122Z" fill="#004FD0"/>
<path d="M240.023 181.167C241.122 181.167 242.013 180.276 242.013 179.177C242.013 178.078 241.122 177.187 240.023 177.187C238.924 177.187 238.033 178.078 238.033 179.177C238.033 180.276 238.924 181.167 240.023 181.167Z" fill="#004FD0"/>
<path d="M265.983 181.167C267.082 181.167 267.973 180.276 267.973 179.177C267.973 178.078 267.082 177.187 265.983 177.187C264.884 177.187 263.993 178.078 263.993 179.177C263.993 180.276 264.884 181.167 265.983 181.167Z" fill="#004FD0"/>
<path d="M240.023 206.901C241.122 206.901 242.013 206.01 242.013 204.911C242.013 203.812 241.122 202.921 240.023 202.921C238.924 202.921 238.033 203.812 238.033 204.911C238.033 206.01 238.924 206.901 240.023 206.901Z" fill="#004FD0"/>
<path d="M265.983 206.901C267.082 206.901 267.973 206.01 267.973 204.911C267.973 203.812 267.082 202.921 265.983 202.921C264.884 202.921 263.993 203.812 263.993 204.911C263.993 206.01 264.884 206.901 265.983 206.901Z" fill="#004FD0"/>
<path d="M240.023 232.634C241.122 232.634 242.013 231.743 242.013 230.644C242.013 229.545 241.122 228.654 240.023 228.654C238.924 228.654 238.033 229.545 238.033 230.644C238.033 231.743 238.924 232.634 240.023 232.634Z" fill="#004FD0"/>
<path d="M265.983 232.634C267.082 232.634 267.973 231.743 267.973 230.644C267.973 229.545 267.082 228.654 265.983 228.654C264.884 228.654 263.993 229.545 263.993 230.644C263.993 231.743 264.884 232.634 265.983 232.634Z" fill="#004FD0"/>
<path d="M240.023 258.368C241.122 258.368 242.013 257.477 242.013 256.378C242.013 255.279 241.122 254.388 240.023 254.388C238.924 254.388 238.033 255.279 238.033 256.378C238.033 257.477 238.924 258.368 240.023 258.368Z" fill="#004FD0"/>
<path d="M265.983 258.368C267.082 258.368 267.973 257.477 267.973 256.378C267.973 255.279 267.082 254.388 265.983 254.388C264.884 254.388 263.993 255.279 263.993 256.378C263.993 257.477 264.884 258.368 265.983 258.368Z" fill="#004FD0"/>
<path d="M242.014 282.107C242.014 282.501 241.897 282.885 241.679 283.213C241.46 283.54 241.149 283.795 240.785 283.946C240.422 284.096 240.022 284.136 239.636 284.059C239.25 283.982 238.895 283.792 238.617 283.514C238.339 283.236 238.149 282.881 238.072 282.495C237.995 282.109 238.035 281.709 238.185 281.345C238.336 280.982 238.591 280.671 238.918 280.452C239.246 280.234 239.63 280.117 240.024 280.117C240.552 280.117 241.058 280.327 241.431 280.7C241.804 281.073 242.014 281.579 242.014 282.107V282.107Z" fill="#004FD0"/>
<path d="M267.974 282.107C267.974 282.501 267.857 282.885 267.639 283.213C267.42 283.54 267.109 283.795 266.745 283.946C266.382 284.096 265.982 284.136 265.596 284.059C265.21 283.982 264.855 283.792 264.577 283.514C264.298 283.236 264.109 282.881 264.032 282.495C263.955 282.109 263.995 281.709 264.145 281.345C264.296 280.982 264.551 280.671 264.878 280.452C265.206 280.234 265.59 280.117 265.984 280.117C266.511 280.118 267.017 280.327 267.39 280.7C267.763 281.074 267.973 281.579 267.974 282.107V282.107Z" fill="#004FD0"/>
<path d="M240.023 309.835C241.122 309.835 242.013 308.944 242.013 307.845C242.013 306.746 241.122 305.855 240.023 305.855C238.924 305.855 238.033 306.746 238.033 307.845C238.033 308.944 238.924 309.835 240.023 309.835Z" fill="#004FD0"/>
<path d="M265.983 309.835C267.082 309.835 267.973 308.944 267.973 307.845C267.973 306.746 267.082 305.855 265.983 305.855C264.884 305.855 263.993 306.746 263.993 307.845C263.993 308.944 264.884 309.835 265.983 309.835Z" fill="#004FD0"/>
<path d="M242.014 333.578C242.014 333.972 241.898 334.356 241.679 334.684C241.46 335.011 241.15 335.266 240.786 335.417C240.423 335.568 240.022 335.608 239.636 335.531C239.25 335.454 238.896 335.265 238.617 334.986C238.339 334.708 238.149 334.354 238.072 333.968C237.995 333.582 238.035 333.181 238.185 332.818C238.336 332.454 238.591 332.143 238.918 331.924C239.246 331.706 239.63 331.589 240.024 331.589C240.551 331.589 241.057 331.799 241.43 332.172C241.804 332.545 242.013 333.05 242.014 333.578Z" fill="#004FD0"/>
<path d="M267.974 333.578C267.974 333.972 267.858 334.356 267.639 334.684C267.42 335.011 267.11 335.266 266.746 335.417C266.383 335.568 265.982 335.608 265.596 335.531C265.21 335.454 264.855 335.265 264.577 334.986C264.299 334.708 264.109 334.354 264.032 333.968C263.955 333.582 263.995 333.181 264.145 332.818C264.296 332.454 264.551 332.143 264.878 331.924C265.206 331.706 265.59 331.589 265.984 331.589C266.511 331.59 267.017 331.799 267.39 332.172C267.763 332.545 267.973 333.051 267.974 333.578Z" fill="#004FD0"/>
</svg>
