<svg xmlns="http://www.w3.org/2000/svg" width="40.943" height="30.707" viewBox="0 0 40.943 30.707"><defs><style>.a{fill:#004fd0;}</style></defs><path class="a" d="M37.1,59.882H3.838A3.843,3.843,0,0,0,0,63.72v23.03a3.843,3.843,0,0,0,3.838,3.838H37.1a3.843,3.843,0,0,0,3.838-3.838V63.72A3.843,3.843,0,0,0,37.1,59.882Zm0,2.559a1.272,1.272,0,0,1,.49.1L20.471,77.381,3.348,62.54a1.274,1.274,0,0,1,.49-.1Zm0,25.589H3.838A1.28,1.28,0,0,1,2.559,86.75V65.243l17.074,14.8a1.281,1.281,0,0,0,1.677,0l17.074-14.8V86.751A1.28,1.28,0,0,1,37.1,88.03Z" transform="translate(0 -59.882)"/></svg>