<svg xmlns="http://www.w3.org/2000/svg" width="94.184" height="94.186" viewBox="0 0 94.184 94.186"><defs><style>.a{fill:#fff;}</style></defs><g transform="translate(0)"><g transform="translate(0)"><g transform="translate(0)"><path class="a" d="M76.165,27.364a1.84,1.84,0,0,0,1.84-1.84V5.519A5.525,5.525,0,0,0,72.486,0H5.526A5.525,5.525,0,0,0,.007,5.519V88.668a5.525,5.525,0,0,0,5.519,5.519H72.486a5.525,5.525,0,0,0,5.519-5.519V75.115a1.84,1.84,0,0,0-3.679,0V88.668a1.842,1.842,0,0,1-1.84,1.84H5.526a1.842,1.842,0,0,1-1.84-1.84V5.519a1.842,1.842,0,0,1,1.84-1.84H72.486a1.842,1.842,0,0,1,1.84,1.84V25.524A1.84,1.84,0,0,0,76.165,27.364Z" transform="translate(-0.007)"/></g></g><g transform="translate(22.075 9.934)"><path class="a" d="M136.931,54A16.916,16.916,0,0,0,125.32,83.225a1.82,1.82,0,0,0,.2.184,16.892,16.892,0,0,0,22.827,0,1.837,1.837,0,0,0,.2-.184A16.916,16.916,0,0,0,136.931,54Zm0,30.169a13.174,13.174,0,0,1-8-2.7,9.2,9.2,0,0,1,16,0A13.174,13.174,0,0,1,136.931,84.169Zm-2.943-13.981v-1.2a2.943,2.943,0,0,1,5.887,0v1.2a2.943,2.943,0,0,1-5.887,0Zm13.6,8.588a12.762,12.762,0,0,0-5.42-4.543,6.588,6.588,0,0,0,1.384-4.044v-1.2a6.622,6.622,0,0,0-13.245,0v1.2a6.588,6.588,0,0,0,1.384,4.044,12.762,12.762,0,0,0-5.42,4.543,13.245,13.245,0,1,1,21.317,0Z" transform="translate(-120.007 -54)"/></g><g transform="translate(37.159 80.573)"><path class="a" d="M213.78,438h-9.934a1.84,1.84,0,1,0,0,3.679h9.934a1.84,1.84,0,1,0,0-3.679Z" transform="translate(-202.007 -438)"/></g><g transform="translate(20.971 70.272)"><path class="a" d="M141.969,382H115.847a1.84,1.84,0,0,0,0,3.679h26.122a1.84,1.84,0,0,0,0-3.679Z" transform="translate(-114.007 -382)"/></g><g transform="translate(20.971 59.97)"><path class="a" d="M141.969,326H115.847a1.84,1.84,0,0,0,0,3.679h26.122a1.84,1.84,0,0,0,0-3.679Z" transform="translate(-114.007 -326)"/></g><g transform="translate(13.112 49.669)"><path class="a" d="M74.429,270.539a1.838,1.838,0,1,0,.539,1.3A1.854,1.854,0,0,0,74.429,270.539Z" transform="translate(-71.287 -270)"/></g><g transform="translate(13.112 59.97)"><path class="a" d="M74.429,326.539a1.838,1.838,0,1,0,.539,1.3A1.857,1.857,0,0,0,74.429,326.539Z" transform="translate(-71.287 -326)"/></g><g transform="translate(13.112 70.272)"><path class="a" d="M74.429,382.539a1.838,1.838,0,1,0,.539,1.3A1.857,1.857,0,0,0,74.429,382.539Z" transform="translate(-71.287 -382)"/></g><g transform="translate(20.971 49.669)"><path class="a" d="M141.969,270H115.847a1.84,1.84,0,1,0,0,3.679h26.122a1.84,1.84,0,0,0,0-3.679Z" transform="translate(-114.007 -270)"/></g><g transform="translate(54.742 22.935)"><path class="a" d="M333.169,125.714a7.726,7.726,0,0,0-10.554,2.828l-23.15,40.1a1.842,1.842,0,0,0-.235.716l-1.629,14.6a1.84,1.84,0,0,0,2.919,1.685l11.826-8.709a1.837,1.837,0,0,0,.5-.561L336,136.268A7.735,7.735,0,0,0,333.169,125.714Zm-31.446,54.465.851-7.622,5.324,3.074Zm8.858-7.248-7.01-4.047,18.577-32.176,7.01,4.047Zm22.23-38.5L331,137.569l-7.01-4.047,1.813-3.141a4.047,4.047,0,0,1,7.01,4.047Z" transform="translate(-297.589 -124.675)"/></g></g></svg>