<svg xmlns="http://www.w3.org/2000/svg" width="95.859" height="95.119" viewBox="0 0 95.859 95.119"><defs><style>.a{fill:#fff;stroke:#fff;}</style></defs><g transform="translate(0.465 0.484)"><path class="a" d="M1304.505,679.114c0,3.636-.022,7.118.025,10.6a3.777,3.777,0,0,0,.538,1.505c.9,1.8,1.827,3.584,2.757,5.367.471.9.343,1.493-.8,1.506-1.961.023-3.923.016-5.884.01-1.08,0-1.336-.514-.9-1.472a18.839,18.839,0,0,1,.736-1.81c2.852-4.839,1.687-10.135,1.948-15.47l-8.172,1.514c.659,3.928,1.329,7.763,1.932,11.608.218,1.393.289,2.811.4,4.219.139,1.742-.354,3.438.978,5.17.729.947.261,2.924.1,4.413-.153,1.447-.629,2.857-.908,4.295-.284,1.464-.515,2.9-2.21,3.514-.314.115-.4.81-.623,1.224-1.056,2-2.135,3.992-3.173,6a5.444,5.444,0,0,0-.718,1.876,32.587,32.587,0,0,0-.027,3.757c.067,2.728,1.4,4.575,4.088,5.163q7.958,1.738,15.978,3.191c5.3.957,8.608,3.844,10.128,9.1,1.764,6.1,3.875,12.092,5.819,18.137a16.946,16.946,0,0,1,.366,1.864c-.815.066-1.45.161-2.087.162q-45.36.065-90.72.113c-2.131,0-2.3-.223-1.672-2.24,1.951-6.273,3.88-12.553,5.868-18.814a10.76,10.76,0,0,1,8.228-7.578c5.118-1.238,10.26-2.379,15.372-3.642,3.878-.958,4.894-2.467,5.017-6.471.071-2.3-.093-4.371-1.854-6.126a9.329,9.329,0,0,1-1.48-2.7c-.661-1.4-.582-3.238-2.47-3.908-.307-.109-.547-.687-.636-1.089-.552-2.493-1.139-4.983-1.535-7.5a5.071,5.071,0,0,1,1.11-4.063c.59-.778.067-2.423-.011-3.675a8.934,8.934,0,0,1-.281-1.764q1.025-6.356,2.19-12.689c.2-1.06.082-1.545-1.151-1.733q-5.638-.862-11.228-2.025a2.632,2.632,0,0,1-1.8-1.452c-.265-1.2.894-1.4,1.823-1.549,10.4-1.721,20.79-3.561,31.226-5.053,2.193-.314,4.583.593,6.86,1.045,6.394,1.27,12.777,2.6,19.165,3.9.266.054.607.051.776.216.429.42,1.083.925,1.076,1.387-.007.442-.657,1.064-1.161,1.266A19.564,19.564,0,0,1,1304.505,679.114Zm20.033,83.518c-.145-.615-.224-1.087-.369-1.537-1.877-5.853-3.731-11.713-5.677-17.543a12.283,12.283,0,0,0-1.714-3.125,2.981,2.981,0,0,0-3.906-1.14c-10.668,3.757-21.392,7.353-32.084,11.042a5.586,5.586,0,0,1-3.949-.006q-15.025-5.444-30.083-10.8c-2.635-.943-3.269-.825-5,1.374a10.478,10.478,0,0,0-1.711,3.117c-1.494,4.541-2.88,9.118-4.286,13.688-.484,1.574-.912,3.166-1.416,4.928ZM1260.7,702.266a6.561,6.561,0,0,0-.172,1.715q.7,3.845,1.562,7.661c.073.323.61.523.891.82.468.494,1.155.954,1.309,1.543.976,3.737,2.666,6.858,6.4,8.537,1.533.69,2.966,1.6,4.459,2.381a7.074,7.074,0,0,0,5.686.685,50.888,50.888,0,0,0,5.8-2.853c3.685-1.861,5.585-5.009,6.481-8.911.108-.469.485-1.2.8-1.239,1.328-.155,1.454-1.081,1.654-2.064.314-1.542.74-3.064,1-4.614.192-1.156.193-2.345.292-3.7-1.988.386-1.964-.566-1.71-1.858.225-1.144.234-2.33.358-3.717-3.529,1.139-6.88,1.941-10,3.291a17.145,17.145,0,0,1-13.8.227,97.749,97.749,0,0,0-9.827-2.767,21.138,21.138,0,0,0,.327,2.984C1262.567,701.734,1262.45,702.584,1260.7,702.266Zm3.172-20.79c-.735,4.251-1.36,8.329-2.186,12.366-.255,1.247.045,1.614,1.172,1.915,4.359,1.163,8.681,2.471,13.049,3.6a8.427,8.427,0,0,0,4.113.311c4.552-1.273,9.016-2.855,13.53-4.27a1.712,1.712,0,0,0,1.4-2.162c-.57-3.54-1.115-7.083-1.662-10.627-.148-.957-.68-1.273-1.61-1.083-2.448.5-4.889,1.049-7.354,1.443-2.337.373-4.745,1-7.045.761C1272.875,683.271,1268.519,682.286,1263.875,681.475Zm48.363,56.188q-.006-.156-.012-.312l-21.049-4.287c-1.206,2.112-2.667,4.589-4.042,7.113-.642,1.178-1.246,1.286-2.252.391-2.028-1.8-4.129-3.526-6.247-5.321-2.065,1.74-4.057,3.421-6.052,5.1-1.512,1.271-1.622,1.252-2.6-.5-1.349-2.41-2.69-4.824-3.827-6.865l-19.059,4.632c.468.226.605.308.752.361q15.1,5.407,30.221,10.777a3.326,3.326,0,0,0,2-.114c6.741-2.26,13.466-4.566,20.194-6.864Q1306.249,739.723,1312.238,737.664ZM1252.469,677l-.04.263a11.011,11.011,0,0,0,1.225.369c6.09,1.112,12.171,2.28,18.278,3.284,2.969.488,5.878,1.424,9.016.741,4.879-1.063,9.823-1.828,14.733-2.747,2.964-.555,5.919-1.163,8.878-1.747-6.99-1.66-13.954-3.1-20.928-4.494a9.865,9.865,0,0,0-3.382-.274C1270.981,673.878,1261.727,675.453,1252.469,677Zm36.1,46.251c-6.6,6.323-13.242,4.952-19.918-.181-.062.9-.056,1.325-.125,1.734-.3,1.771.367,2.851,2.028,3.669,2.379,1.172,4.637,2.6,6.894,4a1.943,1.943,0,0,0,2.349.042,48.165,48.165,0,0,1,6.245-3.5C1288.577,727.95,1289.475,726.323,1288.566,723.252Zm-17.1,15.922,5.793-4.913-9.177-5.351c-.261,1.144-.916,2.27-.6,2.957C1268.593,734.315,1270.036,736.615,1271.467,739.174Zm14.333.026c1.214-2.131,2.2-4.142,3.449-5.966a2.845,2.845,0,0,0-.23-4.064l-9,5.112Zm17.951-46.83-1.539,4h3.6Z" transform="translate(-1232.093 -670.534)"/></g></svg>